<?xml version="1.0" encoding="UTF-8" standalone="yes"?>
<svg xmlns="http://www.w3.org/2000/svg" xmlns:xlink="http://www.w3.org/1999/xlink" width="200px" height="200px" viewBox="0 0 150 150" version="1.1">
  <g id="surface1">
    <path style="fill:none;stroke-width:4.59152;stroke-linecap:butt;stroke-linejoin:miter;stroke:rgb(13.72549%,12.156863%,12.54902%);stroke-opacity:1;stroke-miterlimit:10;" d="M 97.703125 1002.36218 C 97.703125 1028.708534 76.346354 1050.065305 50.002604 1050.065305 C 23.65625 1050.065305 2.296875 1028.708534 2.296875 1002.36218 C 2.296875 976.015826 23.65625 954.659055 50.002604 954.659055 C 76.346354 954.659055 97.703125 976.015826 97.703125 1002.36218 Z M 97.703125 1002.36218 " transform="matrix(1.5,0,0,1.5,0,-1428.54327)"/>
    <path style=" stroke:none;fill-rule:nonzero;fill:rgb(100%,100%,100%);fill-opacity:1;" d="M 63.480469 131.378906 C 63.578125 131.359375 63.671875 131.335938 63.765625 131.324219 C 65.339844 131.183594 66.933594 131.132812 68.492188 130.886719 C 73.796875 130.027344 78.605469 127.96875 82.933594 124.78125 C 83.195312 124.59375 83.449219 124.398438 83.707031 124.199219 C 83.664062 124.144531 83.652344 124.113281 83.625 124.089844 C 80.847656 121.3125 78.066406 118.535156 75.296875 115.75 C 75.117188 115.570312 75.011719 115.648438 74.859375 115.75 C 70.265625 118.734375 65.246094 119.863281 59.839844 119.078125 C 54.824219 118.347656 50.558594 116.09375 47.144531 112.351562 C 42.726562 107.511719 40.875 101.789062 41.539062 95.265625 C 41.804688 92.628906 42.578125 90.136719 43.8125 87.792969 C 44.210938 87.039062 44.652344 86.3125 45.082031 85.570312 C 42.25 82.707031 39.402344 79.835938 36.550781 76.953125 C 36.4375 77.085938 36.386719 77.152344 36.328125 77.21875 C 34.871094 79.113281 33.625 81.144531 32.601562 83.304688 C 30.644531 87.433594 29.5625 91.785156 29.394531 96.351562 C 29.386719 96.601562 29.351562 96.847656 29.332031 97.089844 "/>
    <path style=" stroke:none;fill-rule:nonzero;fill:rgb(100%,100%,100%);fill-opacity:1;" d="M 115.835938 75.023438 C 115.789062 74.765625 115.742188 74.511719 115.699219 74.253906 C 115.21875 71.292969 112.488281 68.878906 109.496094 68.871094 C 107.855469 68.871094 106.21875 69.015625 104.582031 69.105469 C 101.414062 69.28125 98.25 69.460938 95.082031 69.636719 C 92.347656 69.789062 89.609375 69.941406 86.863281 70.089844 C 86.601562 70.109375 86.332031 70.089844 86.015625 70.089844 C 86.089844 69.996094 86.132812 69.9375 86.183594 69.886719 C 90.304688 65.1875 94.4375 60.503906 98.542969 55.796875 C 100.296875 53.789062 100.816406 51.449219 100.257812 48.847656 C 99.796875 46.695312 98.589844 45.140625 96.675781 44.050781 C 91.933594 41.332031 87.21875 38.5625 82.496094 35.816406 C 77.351562 32.832031 72.214844 29.828125 67.066406 26.863281 C 65.046875 25.703125 62.953125 25.679688 60.84375 26.671875 C 59.957031 27.089844 59.265625 27.761719 58.550781 28.40625 C 53.945312 32.511719 49.335938 36.613281 44.742188 40.734375 C 42.925781 42.363281 42.183594 44.421875 42.609375 46.820312 C 43.046875 49.296875 44.496094 51.019531 46.851562 51.867188 C 49.199219 52.710938 51.4375 52.332031 53.332031 50.691406 C 56.414062 48.019531 59.433594 45.269531 62.476562 42.554688 C 63.183594 41.917969 63.894531 41.292969 64.609375 40.660156 C 67.683594 42.445312 70.734375 44.21875 73.800781 46 C 73.355469 46.5 72.9375 46.976562 72.519531 47.449219 C 67.675781 52.96875 62.828125 58.484375 57.996094 64.011719 C 57.679688 64.367188 57.347656 64.558594 56.882812 64.644531 C 50.90625 65.738281 45.628906 68.300781 41.023438 72.25 C 40.660156 72.558594 40.316406 72.882812 39.992188 73.179688 C 42.84375 76.035156 45.667969 78.859375 48.488281 81.679688 C 57.28125 73.738281 70.339844 74.519531 78.1875 82.371094 C 82.03125 86.207031 84.195312 90.859375 84.542969 96.28125 C 84.925781 102.355469 82.996094 107.664062 79.023438 112.195312 C 81.859375 115.027344 84.6875 117.855469 87.53125 120.703125 C 92.246094 115.609375 95.214844 109.625 96.246094 102.71875 C 97.269531 95.828125 96.238281 89.230469 93.21875 82.917969 C 96.191406 82.75 99.109375 82.59375 102.050781 82.425781 C 102.003906 83.011719 101.953125 83.53125 101.914062 84.054688 C 101.800781 85.515625 101.679688 86.976562 101.558594 88.433594 C 101.414062 90.199219 101.273438 91.964844 101.128906 93.730469 C 101.003906 95.191406 100.890625 96.652344 100.773438 98.113281 C 100.628906 99.878906 100.484375 101.644531 100.339844 103.410156 C 100.214844 104.886719 100.066406 106.367188 99.980469 107.851562 C 99.925781 108.765625 99.832031 109.710938 99.992188 110.59375 C 100.675781 114.320312 104.125 116.601562 107.835938 115.867188 C 110.546875 115.324219 112.789062 112.835938 113.003906 110.148438 C 113.152344 108.1875 113.308594 106.222656 113.472656 104.265625 C 113.726562 101.179688 113.984375 98.09375 114.242188 95.011719 C 114.484375 92.070312 114.722656 89.128906 114.957031 86.1875 C 115.207031 83.089844 115.453125 79.992188 115.703125 76.898438 C 115.730469 76.554688 115.789062 76.210938 115.832031 75.871094 "/>
    <path style=" stroke:none;fill-rule:nonzero;fill:rgb(100%,100%,100%);fill-opacity:1;" d="M 101.253906 20.636719 C 100.722656 20.707031 100.195312 20.757812 99.671875 20.859375 C 93.6875 22.035156 89.824219 27.722656 90.933594 33.726562 C 92.027344 39.621094 97.769531 43.742188 103.964844 42.46875 C 109.824219 41.265625 113.550781 35.792969 112.613281 29.859375 C 111.917969 25.445312 108.433594 21.800781 104.039062 20.90625 C 103.445312 20.785156 102.835938 20.726562 102.238281 20.636719 "/>
    <path style=" stroke:none;fill-rule:evenodd;fill:rgb(13.72549%,12.156863%,12.54902%);fill-opacity:1;" d="M 115.835938 75.875 C 115.789062 76.21875 115.734375 76.558594 115.703125 76.902344 C 115.453125 80 115.210938 83.09375 114.957031 86.191406 C 114.726562 89.132812 114.484375 92.074219 114.242188 95.015625 C 113.984375 98.097656 113.730469 101.183594 113.476562 104.269531 C 113.308594 106.230469 113.152344 108.191406 113.003906 110.15625 C 112.792969 112.839844 110.546875 115.328125 107.835938 115.871094 C 104.125 116.605469 100.675781 114.328125 99.992188 110.601562 C 99.832031 109.714844 99.925781 108.769531 99.980469 107.855469 C 100.070312 106.375 100.214844 104.894531 100.339844 103.414062 C 100.484375 101.648438 100.628906 99.882812 100.773438 98.117188 C 100.890625 96.65625 101.003906 95.195312 101.128906 93.734375 C 101.273438 91.96875 101.417969 90.203125 101.5625 88.441406 C 101.683594 86.980469 101.800781 85.519531 101.914062 84.058594 C 101.953125 83.535156 102.003906 83.015625 102.050781 82.429688 C 99.113281 82.597656 96.195312 82.757812 93.21875 82.921875 C 96.238281 89.238281 97.273438 95.835938 96.25 102.722656 C 95.214844 109.628906 92.246094 115.613281 87.535156 120.707031 C 84.691406 117.859375 81.859375 115.03125 79.023438 112.199219 C 82.996094 107.667969 84.929688 102.359375 84.542969 96.285156 C 84.199219 90.867188 82.03125 86.210938 78.1875 82.375 C 70.339844 74.523438 57.28125 73.742188 48.488281 81.6875 C 45.667969 78.863281 42.84375 76.039062 39.992188 73.183594 C 40.320312 72.890625 40.664062 72.5625 41.023438 72.253906 C 45.632812 68.308594 50.90625 65.742188 56.882812 64.648438 C 57.347656 64.5625 57.679688 64.375 57.996094 64.015625 C 62.832031 58.488281 67.679688 52.976562 72.519531 47.457031 C 72.9375 46.980469 73.355469 46.503906 73.804688 46.003906 C 70.734375 44.222656 67.683594 42.449219 64.609375 40.664062 C 63.894531 41.296875 63.183594 41.925781 62.480469 42.558594 C 59.433594 45.273438 56.414062 48.023438 53.332031 50.695312 C 51.4375 52.335938 49.199219 52.714844 46.851562 51.871094 C 44.496094 51.023438 43.046875 49.300781 42.609375 46.824219 C 42.1875 44.425781 42.925781 42.367188 44.742188 40.738281 C 49.335938 36.617188 53.949219 32.519531 58.550781 28.410156 C 59.265625 27.769531 59.957031 27.09375 60.84375 26.675781 C 62.957031 25.683594 65.050781 25.710938 67.070312 26.867188 C 72.214844 29.835938 77.351562 32.835938 82.5 35.820312 C 87.222656 38.566406 91.933594 41.339844 96.675781 44.054688 C 98.59375 45.144531 99.796875 46.699219 100.261719 48.851562 C 100.816406 51.453125 100.296875 53.792969 98.542969 55.800781 C 94.441406 60.507812 90.304688 65.191406 86.183594 69.890625 C 86.132812 69.941406 86.09375 70.003906 86.015625 70.09375 C 86.332031 70.09375 86.601562 70.09375 86.863281 70.09375 C 89.609375 69.945312 92.347656 69.796875 95.085938 69.640625 C 98.25 69.464844 101.417969 69.285156 104.582031 69.113281 C 106.21875 69.023438 107.859375 68.871094 109.5 68.878906 C 112.488281 68.878906 115.21875 71.296875 115.699219 74.257812 C 115.746094 74.519531 115.789062 74.769531 115.835938 75.027344 C 115.835938 75.3125 115.835938 75.597656 115.835938 75.878906 "/>
    <path style=" stroke:none;fill-rule:evenodd;fill:rgb(13.72549%,12.156863%,12.54902%);fill-opacity:1;" d="M 29.328125 97.089844 C 29.351562 96.847656 29.386719 96.601562 29.394531 96.351562 C 29.5625 91.785156 30.644531 87.4375 32.601562 83.304688 C 33.625 81.144531 34.871094 79.113281 36.328125 77.222656 C 36.386719 77.152344 36.4375 77.085938 36.550781 76.953125 C 39.402344 79.835938 42.25 82.707031 45.082031 85.570312 C 44.652344 86.316406 44.207031 87.039062 43.8125 87.792969 C 42.578125 90.140625 41.804688 92.632812 41.539062 95.269531 C 40.875 101.789062 42.726562 107.511719 47.144531 112.351562 C 50.558594 116.09375 54.824219 118.351562 59.839844 119.078125 C 65.246094 119.863281 70.265625 118.734375 74.855469 115.75 C 75.011719 115.648438 75.117188 115.570312 75.296875 115.75 C 78.066406 118.539062 80.847656 121.316406 83.625 124.089844 C 83.652344 124.117188 83.664062 124.144531 83.707031 124.203125 C 83.449219 124.398438 83.191406 124.59375 82.933594 124.785156 C 78.605469 127.96875 73.796875 130.027344 68.492188 130.886719 C 66.933594 131.136719 65.339844 131.183594 63.765625 131.328125 C 63.671875 131.328125 63.578125 131.363281 63.480469 131.378906 C 63.15625 131.378906 62.828125 131.378906 62.496094 131.378906 C 62.40625 131.363281 62.308594 131.328125 62.21875 131.328125 C 60.148438 131.300781 58.097656 131.066406 56.074219 130.632812 C 49.574219 129.246094 43.960938 126.199219 39.246094 121.53125 C 36.4375 118.75 34.199219 115.554688 32.523438 111.972656 C 30.609375 107.875 29.558594 103.570312 29.394531 99.042969 C 29.386719 98.808594 29.351562 98.574219 29.328125 98.34375 C 29.328125 97.921875 29.328125 97.511719 29.328125 97.09375 "/>
    <path style=" stroke:none;fill-rule:evenodd;fill:rgb(13.72549%,12.156863%,12.54902%);fill-opacity:1;" d="M 102.238281 20.636719 C 102.835938 20.726562 103.445312 20.789062 104.039062 20.90625 C 108.433594 21.800781 111.917969 25.445312 112.613281 29.859375 C 113.550781 35.792969 109.824219 41.265625 103.964844 42.46875 C 97.769531 43.742188 92.027344 39.621094 90.933594 33.726562 C 89.824219 27.722656 93.6875 22.035156 99.671875 20.859375 C 100.195312 20.757812 100.722656 20.707031 101.253906 20.636719 C 101.578125 20.636719 101.90625 20.636719 102.238281 20.636719 "/>
    <path style=" stroke:none;fill-rule:evenodd;fill:rgb(13.72549%,12.156863%,12.54902%);fill-opacity:1;" d="M 29.328125 98.339844 C 29.351562 98.574219 29.386719 98.804688 29.394531 99.042969 C 29.558594 103.566406 30.613281 107.875 32.523438 111.972656 C 34.199219 115.554688 36.4375 118.75 39.246094 121.527344 C 43.960938 126.199219 49.574219 129.246094 56.074219 130.632812 C 58.097656 131.066406 60.148438 131.300781 62.21875 131.324219 C 62.308594 131.324219 62.40625 131.359375 62.496094 131.378906 "/>
  </g>
</svg>