<?xml version="1.0" standalone="no"?>
<!DOCTYPE svg PUBLIC "-//W3C//DTD SVG 20010904//EN"
 "http://www.w3.org/TR/2001/REC-SVG-20010904/DTD/svg10.dtd">
<svg version="1.0" xmlns="http://www.w3.org/2000/svg"
 width="212.000000pt" height="212.000000pt" viewBox="0 0 212.000000 212.000000"
 preserveAspectRatio="xMidYMid meet">
<metadata>
Created by potrace 1.11, written by Peter Selinger 2001-2013
</metadata>
<g transform="translate(0.000000,212.000000) scale(0.100000,-0.100000)"
fill="#000000" stroke="none">
<path d="M922 2090 c-515 -73 -902 -517 -902 -1035 0 -404 236 -773 604 -946
503 -235 1118 -22 1366 475 27 55 62 142 77 191 25 84 27 102 27 280 0 178 -2
196 -27 280 -112 374 -395 644 -768 735 -96 23 -282 33 -377 20z m333 -106
c338 -64 615 -322 722 -671 24 -80 27 -103 27 -253 0 -139 -4 -177 -22 -245
-96 -347 -382 -618 -727 -690 -100 -20 -286 -21 -380 -1 -568 122 -896 694
-711 1239 78 230 251 429 466 537 200 100 397 127 625 84z"/>
<path d="M1360 1791 c-38 -20 -80 -89 -80 -130 0 -14 9 -44 19 -67 51 -113
221 -113 272 0 24 53 24 80 -1 131 -37 76 -135 107 -210 66z"/>
<path d="M865 1728 c-21 -12 -195 -165 -232 -205 -52 -55 -11 -148 65 -148 34
0 48 8 106 60 121 108 104 102 175 64 33 -19 61 -37 61 -40 0 -4 -49 -62 -110
-131 -104 -119 -112 -125 -167 -141 -56 -15 -183 -88 -183 -105 0 -4 25 -32
55 -62 48 -47 58 -53 73 -42 118 86 277 80 381 -14 60 -54 88 -103 102 -180
12 -66 -7 -154 -46 -212 l-25 -37 57 -57 c64 -65 64 -65 114 13 79 123 89 259
34 437 -7 21 -5 22 55 22 l62 0 -6 -47 c-3 -27 -11 -116 -17 -199 -13 -170
-10 -186 47 -210 29 -12 39 -12 68 0 19 8 39 23 44 33 6 10 20 135 32 277 24
278 23 291 -24 322 -23 14 -44 15 -193 6 -93 -5 -170 -8 -172 -6 -1 1 38 49
88 106 107 121 121 151 94 205 -16 33 -46 54 -248 170 -126 73 -238 133 -250
133 -11 0 -29 -6 -40 -12z"/>
<path d="M495 983 c-61 -90 -83 -259 -49 -374 25 -83 51 -128 116 -195 144
-150 361 -186 546 -89 84 44 83 38 18 104 l-58 59 -52 -24 c-118 -55 -273 -17
-356 87 -49 62 -64 108 -64 189 0 46 7 80 23 118 l24 53 -54 55 c-29 30 -57
54 -61 54 -4 0 -19 -17 -33 -37z"/>
</g>
</svg>
