<?xml version="1.0" encoding="UTF-8" standalone="yes"?>
<svg xmlns="http://www.w3.org/2000/svg" xmlns:xlink="http://www.w3.org/1999/xlink" width="200" height="200" viewBox="0 0 150 150" version="1.1">
<style>
.s0{
         stroke:none;
        fill-rule:nonzero;
        fill:rgb(100%,100%,100%);
}
.s1{
         stroke:none;
        fill-rule:evenodd;
        fill:rgb(13.72549%,12.156863%,12.54902%);
}

</style>  <g id="surface1">
    <path d="M97.7 1002.36C97.7 1028.71 76.35 1050.07 50 1050.07 23.66 1050.07 2.3 1028.71 2.3 1002.36 2.3 976.02 23.66 954.66 50 954.66 76.35 954.66 97.7 976.02 97.7 1002.36ZM97.7 1002.36" transform="matrix(1.5,0,0,1.5,0,-1428.54327)" style="fill:none;stroke-miterlimit:10;stroke-width:4.59;stroke:rgb(13.72549%,12.156863%,12.54902%)"/>
    <path d="M63.48 131.38C63.58 131.36 63.67 131.34 63.77 131.32 65.34 131.18 66.93 131.13 68.49 130.89 73.8 130.03 78.61 127.97 82.93 124.78 83.2 124.59 83.45 124.4 83.71 124.2 83.66 124.14 83.65 124.11 83.63 124.09 80.85 121.31 78.07 118.54 75.3 115.75 75.12 115.57 75.01 115.65 74.86 115.75 70.27 118.73 65.25 119.86 59.84 119.08 54.82 118.35 50.56 116.09 47.14 112.35 42.73 107.51 40.88 101.79 41.54 95.27 41.8 92.63 42.58 90.14 43.81 87.79 44.21 87.04 44.65 86.31 45.08 85.57 42.25 82.71 39.4 79.84 36.55 76.95 36.44 77.09 36.39 77.15 36.33 77.22 34.87 79.11 33.63 81.14 32.6 83.3 30.64 87.43 29.56 91.79 29.39 96.35 29.39 96.6 29.35 96.85 29.33 97.09" class="s0"/>
    <path d="M115.84 75.02C115.79 74.77 115.74 74.51 115.7 74.25 115.22 71.29 112.49 68.88 109.5 68.87 107.86 68.87 106.22 69.02 104.58 69.11 101.41 69.28 98.25 69.46 95.08 69.64 92.35 69.79 89.61 69.94 86.86 70.09 86.6 70.11 86.33 70.09 86.02 70.09 86.09 70 86.13 69.94 86.18 69.89 90.3 65.19 94.44 60.5 98.54 55.8 100.3 53.79 100.82 51.45 100.26 48.85 99.8 46.7 98.59 45.14 96.68 44.05 91.93 41.33 87.22 38.56 82.5 35.82 77.35 32.83 72.21 29.83 67.07 26.86 65.05 25.7 62.95 25.68 60.84 26.67 59.96 27.09 59.27 27.76 58.55 28.41 53.95 32.51 49.34 36.61 44.74 40.73 42.93 42.36 42.18 44.42 42.61 46.82 43.05 49.3 44.5 51.02 46.85 51.87 49.2 52.71 51.44 52.33 53.33 50.69 56.41 48.02 59.43 45.27 62.48 42.55 63.18 41.92 63.89 41.29 64.61 40.66 67.68 42.45 70.73 44.22 73.8 46 73.36 46.5 72.94 46.98 72.52 47.45 67.68 52.97 62.83 58.48 58 64.01 57.68 64.37 57.35 64.56 56.88 64.64 50.91 65.74 45.63 68.3 41.02 72.25 40.66 72.56 40.32 72.88 39.99 73.18 42.84 76.04 45.67 78.86 48.49 81.68 57.28 73.74 70.34 74.52 78.19 82.37 82.03 86.21 84.2 90.86 84.54 96.28 84.93 102.36 83 107.66 79.02 112.2 81.86 115.03 84.69 117.86 87.53 120.7 92.25 115.61 95.21 109.63 96.25 102.72 97.27 95.83 96.24 89.23 93.22 82.92 96.19 82.75 99.11 82.59 102.05 82.43 102 83.01 101.95 83.53 101.91 84.05 101.8 85.52 101.68 86.98 101.56 88.43 101.41 90.2 101.27 91.96 101.13 93.73 101 95.19 100.89 96.65 100.77 98.11 100.63 99.88 100.48 101.64 100.34 103.41 100.21 104.89 100.07 106.37 99.98 107.85 99.93 108.77 99.83 109.71 99.99 110.59 100.68 114.32 104.13 116.6 107.84 115.87 110.55 115.32 112.79 112.84 113 110.15 113.15 108.19 113.31 106.22 113.47 104.27 113.73 101.18 113.98 98.09 114.24 95.01 114.48 92.07 114.72 89.13 114.96 86.19 115.21 83.09 115.45 79.99 115.7 76.9 115.73 76.55 115.79 76.21 115.83 75.87" class="s0"/>
    <path d="M101.25 20.64C100.72 20.71 100.2 20.76 99.67 20.86 93.69 22.04 89.82 27.72 90.93 33.73 92.03 39.62 97.77 43.74 103.96 42.47 109.82 41.27 113.55 35.79 112.61 29.86 111.92 25.45 108.43 21.8 104.04 20.91 103.45 20.79 102.84 20.73 102.24 20.64" class="s0"/>
    <path d="M115.84 75.88C115.79 76.22 115.73 76.56 115.7 76.9 115.45 80 115.21 83.09 114.96 86.19 114.73 89.13 114.48 92.07 114.24 95.02 113.98 98.1 113.73 101.18 113.48 104.27 113.31 106.23 113.15 108.19 113 110.16 112.79 112.84 110.55 115.33 107.84 115.87 104.13 116.61 100.68 114.33 99.99 110.6 99.83 109.71 99.93 108.77 99.98 107.86 100.07 106.38 100.21 104.89 100.34 103.41 100.48 101.65 100.63 99.88 100.77 98.12 100.89 96.66 101 95.2 101.13 93.73 101.27 91.97 101.42 90.2 101.56 88.44 101.68 86.98 101.8 85.52 101.91 84.06 101.95 83.54 102 83.02 102.05 82.43 99.11 82.6 96.2 82.76 93.22 82.92 96.24 89.24 97.27 95.84 96.25 102.72 95.21 109.63 92.25 115.61 87.54 120.71 84.69 117.86 81.86 115.03 79.02 112.2 83 107.67 84.93 102.36 84.54 96.29 84.2 90.87 82.03 86.21 78.19 82.38 70.34 74.52 57.28 73.74 48.49 81.69 45.67 78.86 42.84 76.04 39.99 73.18 40.32 72.89 40.66 72.56 41.02 72.25 45.63 68.31 50.91 65.74 56.88 64.65 57.35 64.56 57.68 64.38 58 64.02 62.83 58.49 67.68 52.98 72.52 47.46 72.94 46.98 73.36 46.5 73.8 46 70.73 44.22 67.68 42.45 64.61 40.66 63.89 41.3 63.18 41.93 62.48 42.56 59.43 45.27 56.41 48.02 53.33 50.7 51.44 52.34 49.2 52.71 46.85 51.87 44.5 51.02 43.05 49.3 42.61 46.82 42.19 44.43 42.93 42.37 44.74 40.74 49.34 36.62 53.95 32.52 58.55 28.41 59.27 27.77 59.96 27.09 60.84 26.68 62.96 25.68 65.05 25.71 67.07 26.87 72.21 29.84 77.35 32.84 82.5 35.82 87.22 38.57 91.93 41.34 96.68 44.05 98.59 45.14 99.8 46.7 100.26 48.85 100.82 51.45 100.3 53.79 98.54 55.8 94.44 60.51 90.3 65.19 86.18 69.89 86.13 69.94 86.09 70 86.02 70.09 86.33 70.09 86.6 70.09 86.86 70.09 89.61 69.95 92.35 69.8 95.09 69.64 98.25 69.46 101.42 69.29 104.58 69.11 106.22 69.02 107.86 68.87 109.5 68.88 112.49 68.88 115.22 71.3 115.7 74.26 115.75 74.52 115.79 74.77 115.84 75.03 115.84 75.31 115.84 75.6 115.84 75.88" class="s1"/>
    <path d="M29.33 97.09C29.35 96.85 29.39 96.6 29.39 96.35 29.56 91.79 30.64 87.44 32.6 83.3 33.63 81.14 34.87 79.11 36.33 77.22 36.39 77.15 36.44 77.09 36.55 76.95 39.4 79.84 42.25 82.71 45.08 85.57 44.65 86.32 44.21 87.04 43.81 87.79 42.58 90.14 41.8 92.63 41.54 95.27 40.88 101.79 42.73 107.51 47.14 112.35 50.56 116.09 54.82 118.35 59.84 119.08 65.25 119.86 70.27 118.73 74.86 115.75 75.01 115.65 75.12 115.57 75.3 115.75 78.07 118.54 80.85 121.32 83.63 124.09 83.65 124.12 83.66 124.14 83.71 124.2 83.45 124.4 83.19 124.59 82.93 124.79 78.61 127.97 73.8 130.03 68.49 130.89 66.93 131.14 65.34 131.18 63.77 131.33 63.67 131.33 63.58 131.36 63.48 131.38 63.16 131.38 62.83 131.38 62.5 131.38 62.41 131.36 62.31 131.33 62.22 131.33 60.15 131.3 58.1 131.07 56.07 130.63 49.57 129.25 43.96 126.2 39.25 121.53 36.44 118.75 34.2 115.55 32.52 111.97 30.61 107.88 29.56 103.57 29.39 99.04 29.39 98.81 29.35 98.57 29.33 98.34 29.33 97.92 29.33 97.51 29.33 97.09" class="s1"/>
    <path d="M102.24 20.64C102.84 20.73 103.45 20.79 104.04 20.91 108.43 21.8 111.92 25.45 112.61 29.86 113.55 35.79 109.82 41.27 103.96 42.47 97.77 43.74 92.03 39.62 90.93 33.73 89.82 27.72 93.69 22.04 99.67 20.86 100.2 20.76 100.72 20.71 101.25 20.64 101.58 20.64 101.91 20.64 102.24 20.64" class="s1"/>
    <path d="M29.33 98.34C29.35 98.57 29.39 98.8 29.39 99.04 29.56 103.57 30.61 107.88 32.52 111.97 34.2 115.55 36.44 118.75 39.25 121.53 43.96 126.2 49.57 129.25 56.07 130.63 58.1 131.07 60.15 131.3 62.22 131.32 62.31 131.32 62.41 131.36 62.5 131.38" class="s1"/>
  </g>
</svg>