<?xml version="1.0" encoding="UTF-8" standalone="yes"?>
<svg xmlns="http://www.w3.org/2000/svg" xmlns:xlink="http://www.w3.org/1999/xlink" width="200px" height="200px" viewBox="0 0 150 150" version="1.1">
  <g id="surface1">
    <path style="fill:none;stroke-width:3.5;stroke-linecap:butt;stroke-linejoin:miter;stroke:rgb(13.72549%,12.156863%,12.54902%);stroke-opacity:1;stroke-miterlimit:10;" d="M 74.476042 38.112813 C 74.476042 58.195417 58.197396 74.476042 38.112813 74.476042 C 18.032188 74.476042 1.749583 58.195417 1.749583 38.112813 C 1.749583 18.032188 18.032188 1.749583 38.112813 1.749583 C 58.197396 1.749583 74.476042 18.032188 74.476042 38.112813 Z M 74.476042 38.112813 " transform="matrix(1.973684,0,0,1.973684,0,0)"/>
    <path style=" stroke:none;fill-rule:nonzero;fill:rgb(13.72549%,12.156863%,12.54902%);fill-opacity:1;" d="M 54.535156 100.820312 C 44.238281 100.820312 35.855469 92.441406 35.855469 82.148438 C 35.855469 71.851562 44.238281 63.472656 54.535156 63.472656 C 64.828125 63.472656 73.207031 71.851562 73.207031 82.148438 C 73.207031 92.441406 64.828125 100.820312 54.535156 100.820312 Z M 83.433594 57.320312 L 72.730469 60.5625 C 70.4375 58.628906 67.839844 57.054688 65.011719 55.925781 L 62.816406 45.089844 L 46.835938 45.078125 L 44.675781 55.683594 C 41.921875 56.710938 39.378906 58.148438 37.113281 59.929688 L 27.242188 56 L 18.5 69.382812 L 26.6875 77.46875 C 26.433594 78.988281 26.300781 80.554688 26.300781 82.148438 C 26.300781 83.597656 26.414062 85.027344 26.621094 86.417969 L 18.347656 95.554688 L 27.824219 108.425781 L 36.917969 104.207031 C 39.121094 105.96875 41.59375 107.410156 44.269531 108.453125 L 46.492188 119.398438 L 62.480469 119.390625 L 64.6875 108.496094 C 67.476562 107.421875 70.050781 105.914062 72.332031 104.058594 L 82.164062 107.851562 L 90.765625 94.375 L 82.453125 86.347656 C 82.65625 84.972656 82.761719 83.574219 82.761719 82.148438 C 82.761719 80.898438 82.683594 79.671875 82.523438 78.464844 L 91.015625 71.390625 L 83.433594 57.320312 "/>
    <path style=" stroke:none;fill-rule:nonzero;fill:rgb(13.72549%,12.156863%,12.54902%);fill-opacity:1;" d="M 96.9375 45.855469 C 94.191406 45.855469 91.960938 43.625 91.960938 40.878906 C 91.960938 38.136719 94.191406 35.902344 96.9375 35.902344 C 99.679688 35.902344 101.910156 38.136719 101.910156 40.878906 C 101.910156 43.625 99.679688 45.855469 96.9375 45.855469 Z M 110.238281 40.878906 C 110.238281 40.292969 110.199219 39.714844 110.121094 39.148438 L 114.128906 35.8125 L 110.554688 29.179688 L 105.503906 30.710938 C 104.429688 29.800781 103.203125 29.058594 101.871094 28.527344 L 100.839844 23.421875 L 93.304688 23.414062 L 92.285156 28.410156 C 90.996094 28.894531 89.796875 29.574219 88.730469 30.410156 L 84.078125 28.558594 L 79.957031 34.863281 L 83.816406 38.675781 C 83.695312 39.394531 83.628906 40.128906 83.628906 40.878906 C 83.628906 41.5625 83.683594 42.238281 83.78125 42.894531 L 79.886719 47.195312 L 84.351562 53.265625 L 88.636719 51.277344 C 89.671875 52.105469 90.835938 52.78125 92.09375 53.273438 L 93.152344 58.4375 L 100.683594 58.429688 L 101.71875 53.292969 C 103.035156 52.785156 104.246094 52.082031 105.324219 51.207031 L 109.957031 52.992188 L 114.011719 46.644531 L 110.09375 42.859375 C 110.1875 42.210938 110.238281 41.554688 110.238281 40.878906 "/>
    <path style=" stroke:none;fill-rule:nonzero;fill:rgb(13.72549%,12.156863%,12.54902%);fill-opacity:1;" d="M 114.613281 94.144531 C 111.433594 94.144531 108.847656 91.5625 108.847656 88.386719 C 108.847656 85.207031 111.433594 82.625 114.613281 82.625 C 117.785156 82.625 120.371094 85.207031 120.371094 88.386719 C 120.371094 91.5625 117.785156 94.144531 114.613281 94.144531 Z M 130.011719 88.386719 C 130.011719 87.707031 129.964844 87.035156 129.878906 86.378906 L 134.515625 82.515625 L 130.378906 74.839844 L 124.535156 76.605469 C 123.285156 75.558594 121.871094 74.699219 120.328125 74.085938 L 119.132812 68.167969 L 110.410156 68.164062 L 109.230469 73.949219 C 107.730469 74.507812 106.347656 75.292969 105.109375 76.265625 L 99.722656 74.121094 L 94.953125 81.421875 L 99.425781 85.835938 C 99.285156 86.664062 99.207031 87.511719 99.207031 88.386719 C 99.207031 89.175781 99.269531 89.957031 99.386719 90.714844 L 94.871094 95.699219 L 100.042969 102.71875 L 105.003906 100.417969 C 106.203125 101.378906 107.554688 102.164062 109.007812 102.730469 L 110.222656 108.707031 L 118.949219 108.703125 L 120.152344 102.757812 C 121.671875 102.171875 123.074219 101.351562 124.324219 100.339844 L 129.6875 102.40625 L 134.378906 95.058594 L 129.839844 90.671875 C 129.953125 89.925781 130.011719 89.164062 130.011719 88.386719 "/>
  </g>
</svg>