<?xml version="1.0" encoding="UTF-8" standalone="yes"?>
<svg xmlns="http://www.w3.org/2000/svg" width="200" height="200" viewBox="0 0 150 150" version="1.1"><style>.s0{ stroke:none;fill:rgb(13.72549%,12.156863%,12.54902%);}</style><path d="M74.5 38.1C74.5 58.2 58.2 74.5 38.1 74.5 18 74.5 1.7 58.2 1.7 38.1 1.7 18 18 1.7 38.1 1.7 58.2 1.7 74.5 18 74.5 38.1ZM74.5 38.1" transform="matrix(1.973684,0,0,1.973684,0,0)" style="fill:none;stroke-width:3.5;stroke:rgb(13.72549%,12.156863%,12.54902%)"/><path d="M54.5 100.8C44.2 100.8 35.9 92.4 35.9 82.1 35.9 71.9 44.2 63.5 54.5 63.5 64.8 63.5 73.2 71.9 73.2 82.1 73.2 92.4 64.8 100.8 54.5 100.8ZM83.4 57.3L72.7 60.6C70.4 58.6 67.8 57.1 65 55.9L62.8 45.1 46.8 45.1 44.7 55.7C41.9 56.7 39.4 58.1 37.1 59.9L27.2 56 18.5 69.4 26.7 77.5C26.4 79 26.3 80.6 26.3 82.1 26.3 83.6 26.4 85 26.6 86.4L18.3 95.6 27.8 108.4 36.9 104.2C39.1 106 41.6 107.4 44.3 108.5L46.5 119.4 62.5 119.4 64.7 108.5C67.5 107.4 70.1 105.9 72.3 104.1L82.2 107.9 90.8 94.4 82.5 86.3C82.7 85 82.8 83.6 82.8 82.1 82.8 80.9 82.7 79.7 82.5 78.5L91 71.4 83.4 57.3M96.9 45.9C94.2 45.9 92 43.6 92 40.9 92 38.1 94.2 35.9 96.9 35.9 99.7 35.9 101.9 38.1 101.9 40.9 101.9 43.6 99.7 45.9 96.9 45.9ZM110.2 40.9C110.2 40.3 110.2 39.7 110.1 39.1L114.1 35.8 110.6 29.2 105.5 30.7C104.4 29.8 103.2 29.1 101.9 28.5L100.8 23.4 93.3 23.4 92.3 28.4C91 28.9 89.8 29.6 88.7 30.4L84.1 28.6 80 34.9 83.8 38.7C83.7 39.4 83.6 40.1 83.6 40.9 83.6 41.6 83.7 42.2 83.8 42.9L79.9 47.2 84.4 53.3 88.6 51.3C89.7 52.1 90.8 52.8 92.1 53.3L93.2 58.4 100.7 58.4 101.7 53.3C103 52.8 104.2 52.1 105.3 51.2L110 53 114 46.6 110.1 42.9C110.2 42.2 110.2 41.6 110.2 40.9M114.6 94.1C111.4 94.1 108.8 91.6 108.8 88.4 108.8 85.2 111.4 82.6 114.6 82.6 117.8 82.6 120.4 85.2 120.4 88.4 120.4 91.6 117.8 94.1 114.6 94.1ZM130 88.4C130 87.7 130 87 129.9 86.4L134.5 82.5 130.4 74.8 124.5 76.6C123.3 75.6 121.9 74.7 120.3 74.1L119.1 68.2 110.4 68.2 109.2 73.9C107.7 74.5 106.3 75.3 105.1 76.3L99.7 74.1 95 81.4 99.4 85.8C99.3 86.7 99.2 87.5 99.2 88.4 99.2 89.2 99.3 90 99.4 90.7L94.9 95.7 100 102.7 105 100.4C106.2 101.4 107.6 102.2 109 102.7L110.2 108.7 118.9 108.7 120.2 102.8C121.7 102.2 123.1 101.4 124.3 100.3L129.7 102.4 134.4 95.1 129.8 90.7C130 89.9 130 89.2 130 88.4" class="s0"/></svg>