<?xml version="1.0" standalone="no"?>
<!DOCTYPE svg PUBLIC "-//W3C//DTD SVG 20010904//EN"
 "http://www.w3.org/TR/2001/REC-SVG-20010904/DTD/svg10.dtd">
<svg version="1.0" xmlns="http://www.w3.org/2000/svg"
 width="212.000000pt" height="212.000000pt" viewBox="0 0 212.000000 212.000000"
 preserveAspectRatio="xMidYMid meet">
<metadata>
Created by potrace 1.11, written by Peter Selinger 2001-2013
</metadata>
<g transform="translate(0.000000,212.000000) scale(0.100000,-0.100000)"
fill="#000000" stroke="none">
<path d="M873 2085 c-394 -71 -718 -371 -823 -760 -28 -103 -38 -323 -20 -432
35 -220 132 -406 294 -569 163 -162 349 -259 569 -294 109 -18 329 -8 432 20
96 26 239 92 324 149 280 190 451 515 451 856 0 586 -465 1049 -1049 1044 -58
0 -138 -7 -178 -14z m416 -105 c336 -82 600 -346 692 -690 32 -119 32 -346 1
-465 -30 -109 -110 -269 -182 -359 -208 -262 -559 -398 -890 -345 -100 15
-251 71 -342 125 -111 66 -256 211 -322 322 -54 91 -110 242 -125 342 -34 209
11 443 120 630 139 240 398 416 676 460 89 14 276 4 372 -20z"/>
<path d="M1304 1745 c-9 -49 -46 -69 -92 -50 l-32 14 -26 -45 -27 -45 27 -28
c34 -35 35 -79 1 -111 -31 -30 -31 -37 4 -79 27 -33 30 -34 59 -22 26 11 34
10 56 -4 14 -10 26 -25 26 -35 0 -41 11 -50 61 -50 48 0 48 0 59 39 13 48 50
68 95 51 15 -6 28 -9 29 -8 1 2 14 22 28 44 l27 42 -29 27 c-35 33 -34 69 3
101 l26 23 -25 44 c-24 44 -25 45 -59 34 -44 -13 -81 9 -93 56 -8 30 -11 32
-60 35 l-51 3 -7 -36z m109 -167 c37 -43 6 -108 -53 -108 -33 0 -70 33 -70 63
0 67 78 96 123 45z"/>
<path d="M666 1472 c-3 -5 -10 -37 -17 -73 l-12 -64 -57 -32 -57 -31 -58 24
c-32 13 -62 24 -66 24 -5 0 -35 -40 -68 -89 l-60 -88 55 -54 54 -53 0 -69 0
-69 -55 -60 -54 -61 39 -56 c22 -31 52 -71 67 -89 l28 -32 59 28 60 28 52 -30
c50 -29 54 -34 64 -86 20 -99 8 -91 133 -88 l112 3 13 72 c11 53 19 74 32 78
10 3 35 17 55 30 l36 25 61 -25 c34 -14 65 -25 69 -25 4 0 33 41 65 91 l57 91
-57 57 c-55 55 -56 58 -56 112 l0 56 60 47 59 47 -49 92 c-31 57 -56 93 -67
95 -10 1 -45 -6 -77 -17 l-59 -18 -51 31 c-28 17 -54 35 -58 41 -4 5 -12 40
-19 77 l-12 68 -108 0 c-59 0 -110 -4 -113 -8z m222 -278 c208 -104 179 -415
-46 -480 -212 -62 -403 168 -303 365 25 47 99 114 143 128 64 21 150 15 206
-13z"/>
<path d="M1547 1143 c-3 -10 -8 -30 -11 -44 -8 -38 -53 -55 -101 -39 -40 13
-45 10 -82 -57 -17 -32 -17 -33 12 -63 37 -39 36 -91 -2 -132 -29 -30 -26 -47
15 -97 28 -33 29 -33 60 -17 28 15 33 15 61 -2 23 -13 33 -27 39 -57 l8 -40
59 0 60 0 9 41 c6 31 16 45 40 58 28 15 35 15 66 2 l34 -14 34 50 34 50 -31
32 c-42 43 -42 82 0 117 l31 25 -26 52 c-29 57 -27 56 -75 42 -51 -14 -96 16
-105 70 l-6 40 -59 0 c-48 0 -61 -3 -64 -17z m121 -220 c18 -20 22 -33 18 -57
-18 -91 -156 -87 -156 5 0 84 82 115 138 52z"/>
</g>
</svg>
