<?xml version="1.0" standalone="no"?>
<!DOCTYPE svg PUBLIC "-//W3C//DTD SVG 20010904//EN"
 "http://www.w3.org/TR/2001/REC-SVG-20010904/DTD/svg10.dtd">
<svg version="1.0" xmlns="http://www.w3.org/2000/svg"
 width="212.000000pt" height="212.000000pt" viewBox="0 0 212.000000 212.000000"
 preserveAspectRatio="xMidYMid meet">
<metadata>
Created by potrace 1.11, written by Peter Selinger 2001-2013
</metadata>
<g transform="translate(0.000000,212.000000) scale(0.100000,-0.100000)"
fill="#000000" stroke="none">
<path d="M920 2090 c-222 -31 -435 -138 -594 -297 -134 -134 -222 -285 -274
-473 -24 -86 -27 -111 -27 -265 1 -146 4 -182 24 -255 50 -186 129 -327 259
-462 359 -373 907 -432 1341 -144 147 98 302 287 371 453 63 152 74 210 74
408 0 153 -3 191 -21 257 -68 242 -213 454 -405 592 -93 66 -238 132 -353 162
-113 28 -287 39 -395 24z m335 -106 c166 -32 325 -116 459 -244 134 -128 219
-271 268 -450 33 -122 33 -347 0 -469 -45 -164 -122 -301 -236 -420 -90 -93
-170 -150 -287 -205 -132 -62 -201 -78 -362 -83 -189 -7 -306 17 -462 95 -358
177 -573 582 -516 973 34 231 131 414 304 575 224 208 515 288 832 228z"/>
<path d="M920 1796 c-139 -30 -260 -91 -355 -178 -165 -151 -246 -335 -246
-558 1 -383 272 -689 655 -740 213 -29 434 44 596 196 171 161 250 357 237
589 -17 321 -241 596 -552 680 -85 22 -255 28 -335 11z m427 -76 c200 -93 355
-271 418 -480 l8 -25 -21 25 c-17 21 -22 22 -36 11 -10 -8 -26 -11 -43 -6 -23
5 -25 4 -14 -9 7 -9 23 -14 34 -13 19 2 22 -4 25 -37 4 -43 -14 -96 -32 -96
-7 0 -26 20 -44 45 -27 39 -52 58 -52 39 0 -10 54 -99 65 -106 5 -5 22 -5 38
-2 32 7 34 -4 11 -67 -8 -24 -19 -88 -24 -141 -7 -86 -12 -103 -44 -155 -20
-32 -36 -64 -36 -70 0 -7 -26 -33 -57 -58 l-57 -47 -24 28 c-21 24 -24 35 -19
81 5 46 1 62 -22 106 -19 36 -25 59 -20 72 14 36 9 44 -27 51 -28 5 -42 2 -64
-15 -38 -27 -58 -27 -114 5 -81 45 -97 94 -57 173 12 22 21 58 21 80 0 42 25
71 62 71 10 0 35 9 55 20 50 27 78 25 137 -6 46 -24 51 -25 62 -10 6 10 28 22
48 27 26 7 36 15 36 31 0 18 -4 19 -35 14 -26 -5 -37 -3 -41 8 -8 22 14 56 37
56 24 0 37 29 18 41 -8 5 -25 8 -39 7 -21 -3 -25 -8 -22 -30 1 -14 -2 -29 -8
-33 -5 -3 -10 -15 -10 -26 0 -24 -5 -24 -41 2 -16 11 -37 19 -47 16 -14 -3
-12 -6 11 -17 28 -14 36 -30 15 -30 -7 0 -22 7 -32 15 -30 23 -55 18 -74 -15
-32 -56 -114 -68 -120 -17 -3 23 1 28 27 33 33 7 40 18 16 28 -23 8 -18 23 10
30 16 4 25 13 25 25 0 10 7 22 16 25 11 4 14 13 10 30 -8 32 9 42 27 16 9 -13
20 -18 31 -14 23 9 21 37 -3 29 -10 -3 -24 1 -31 10 -12 14 -15 14 -31 -1 -27
-25 -42 -8 -35 40 3 22 7 61 9 86 3 58 31 66 65 20 12 -16 29 -30 37 -30 20 0
19 9 -2 32 -14 16 -15 23 -5 38 9 15 9 21 -2 27 -7 4 -18 18 -25 31 -8 15 -21
22 -39 22 -31 0 -52 16 -52 38 0 20 48 9 127 -28z m-527 5 c0 -9 -11 -20 -24
-25 -21 -8 -56 -59 -56 -82 0 -5 15 -6 33 -3 31 6 33 5 32 -21 -1 -23 -10 -31
-55 -51 -61 -27 -70 -36 -70 -75 0 -38 14 -35 39 7 21 37 51 47 51 18 0 -9 6
-24 13 -32 17 -21 40 -89 33 -100 -3 -4 -28 -11 -56 -15 -54 -7 -59 -12 -32
-32 13 -10 14 -15 5 -25 -9 -9 -16 -9 -26 -1 -18 16 -149 -88 -161 -129 -11
-37 -22 -37 -29 1 -4 19 -17 34 -36 44 -27 15 -29 14 -35 -7 -3 -12 -6 -37 -6
-56 0 -29 2 -32 15 -21 24 20 44 -3 27 -31 -11 -17 -10 -28 4 -67 9 -26 25
-56 35 -66 17 -18 19 -18 25 -3 9 23 31 21 37 -3 3 -13 14 -20 30 -20 25 0 88
-45 160 -112 22 -21 45 -38 50 -38 13 0 114 -67 123 -81 3 -6 -3 -17 -14 -25
-13 -9 -22 -28 -24 -52 -3 -34 -7 -38 -45 -50 -30 -10 -43 -20 -47 -38 -4 -16
-18 -29 -35 -35 -16 -6 -33 -21 -39 -34 -10 -21 -8 -27 21 -49 44 -35 13 -33
-44 2 -65 42 -103 91 -134 173 -16 41 -46 99 -67 129 -39 54 -40 56 -34 120 6
54 3 72 -14 105 -11 21 -20 46 -20 55 0 9 -11 27 -25 40 -54 51 -66 186 -26
288 34 86 85 157 189 260 74 75 109 102 147 116 28 10 54 23 60 27 14 14 25
11 25 -6z m218 -113 c2 -24 -2 -50 -9 -58 -9 -11 -9 -18 -1 -26 12 -12 2 -23
-65 -75 -18 -14 -35 -33 -38 -44 -9 -26 -26 -23 -49 7 -15 21 -16 30 -7 50 40
86 45 111 26 122 -15 8 -13 12 10 40 24 28 31 31 78 29 l52 -2 3 -43z m168
-232 c26 0 16 -39 -11 -46 -14 -4 -27 -5 -29 -3 -2 2 -6 27 -9 54 l-7 50 21
-27 c11 -16 27 -28 35 -28z m-64 -32 c-15 -15 -26 -4 -18 18 5 13 9 15 18 6 9
-9 9 -15 0 -24z m572 -592 c-3 -13 -14 -32 -25 -42 -18 -16 -19 -16 -19 4 0
11 4 23 9 27 5 3 13 19 16 37 6 25 9 28 16 15 5 -9 7 -27 3 -41z"/>
<path d="M1290 1526 c0 -4 10 -22 23 -41 l22 -33 12 25 c9 18 9 23 0 20 -7 -2
-22 5 -34 16 -13 11 -23 17 -23 13z"/>
</g>
</svg>
