<?xml version="1.0" encoding="UTF-8" standalone="yes"?>
<svg xmlns="http://www.w3.org/2000/svg" xmlns:xlink="http://www.w3.org/1999/xlink" width="200px" height="200px" viewBox="0 0 150 150" version="1.1">
  <g id="surface1">
    <path style="fill:none;stroke-width:3.5;stroke-linecap:butt;stroke-linejoin:miter;stroke:rgb(13.72549%,12.156863%,12.54902%);stroke-opacity:1;stroke-miterlimit:10;" d="M 74.48 38.112813 C 74.48 58.197396 58.197396 74.476042 38.114792 74.476042 C 18.032188 74.476042 1.749583 58.197396 1.749583 38.112813 C 1.749583 18.032188 18.032188 1.749583 38.114792 1.749583 C 58.197396 1.749583 74.48 18.032188 74.48 38.112813 Z M 74.48 38.112813 " transform="matrix(1.973684,0,0,1.973684,0,0)"/>
    <path style=" stroke:none;fill-rule:nonzero;fill:rgb(13.72549%,12.156863%,12.54902%);fill-opacity:1;" d="M 123.695312 60.621094 C 122.046875 60.25 122.566406 61.59375 121.359375 61.941406 C 120.382812 62.222656 118.777344 61.226562 117.789062 61.046875 C 117.460938 62.09375 118.683594 63.109375 119.691406 63.148438 C 121.109375 63.199219 121.34375 61.78125 122.378906 63.90625 C 123.472656 66.136719 122.796875 68.707031 121.84375 70.882812 C 120.472656 74.011719 119.140625 72.53125 117.792969 70.335938 C 116.929688 68.929688 114.949219 66.039062 113.105469 65.914062 C 112.75 67.453125 114.269531 68.777344 115.015625 69.988281 C 115.589844 70.9375 115.898438 71.945312 116.449219 72.941406 C 117.519531 74.890625 120.226562 75.792969 121.925781 73.644531 C 123.925781 74.6875 120.746094 80.882812 120.410156 82.609375 C 119.574219 86.882812 120.207031 91.558594 119.148438 95.734375 C 118.328125 98.957031 115.539062 101.246094 114.472656 104.371094 C 113.339844 107.710938 111.351562 108.566406 108.808594 110.660156 C 107.9375 111.378906 107.113281 112.703125 105.882812 112.644531 C 104.382812 112.570312 103.289062 110.664062 102.820312 109.355469 C 101.894531 106.761719 103.21875 104.414062 103.011719 101.851562 C 102.8125 99.40625 101.175781 97.355469 99.90625 95.421875 C 98.195312 92.796875 100.691406 92.003906 100.277344 89.476562 C 99.003906 89.011719 97.195312 88.515625 95.769531 88.582031 C 93.949219 88.671875 93.046875 90.289062 91.355469 91.101562 C 88.917969 92.28125 88.453125 91.425781 86.242188 90.152344 C 84.332031 89.058594 82.980469 88.574219 81.429688 87.066406 C 78.710938 84.421875 78.578125 81.863281 80.300781 78.425781 C 81.050781 76.917969 82.058594 75.652344 82.363281 73.976562 C 82.628906 72.527344 82.050781 70.519531 82.542969 69.125 C 83.085938 67.558594 85 66.726562 86.460938 66.425781 C 88.417969 66.027344 89.070312 65.957031 90.824219 64.796875 C 94.488281 62.363281 97.878906 63.238281 101.121094 65.53125 C 102.027344 66.171875 103.867188 67.511719 104.949219 66.785156 C 105.453125 66.453125 105.308594 65.460938 105.746094 65.03125 C 106.46875 64.328125 107.632812 64.511719 108.585938 64.269531 C 109.824219 63.953125 112.269531 63.171875 111.417969 61.210938 C 110.601562 59.304688 108.808594 61.023438 107.515625 61.035156 C 103.613281 61.066406 105.980469 57.007812 107.679688 56.214844 C 108.738281 55.722656 110.199219 56.347656 110.5625 54.875 C 110.832031 53.777344 110.097656 53.394531 109.296875 52.9375 C 108.035156 52.21875 104.582031 51.953125 104.796875 54.199219 C 104.957031 55.886719 106.207031 54.96875 105.121094 56.847656 C 104.898438 57.230469 104.320312 57.4375 104.128906 57.828125 C 103.820312 58.457031 104.214844 59.421875 103.910156 59.949219 C 102.894531 61.710938 101.636719 59.183594 100.488281 58.511719 C 99.382812 57.867188 97.832031 57.296875 96.558594 57.457031 C 96.175781 59.375 99.015625 58.777344 99.902344 59.996094 C 101.519531 62.226562 98.46875 61.136719 97.421875 60.304688 C 94.375 57.894531 93.058594 58.523438 91.308594 61.929688 C 90.613281 63.285156 90.191406 63.703125 88.792969 64.257812 C 87.835938 64.628906 85.332031 65.460938 84.300781 64.992188 C 83.453125 64.605469 82.574219 61.730469 83.082031 60.902344 C 83.964844 59.445312 86.878906 60.773438 87.59375 59.644531 C 88.554688 58.125 85.289062 58.242188 84.96875 57.445312 C 84.480469 56.226562 88.007812 56.277344 88.625 55.277344 C 89.027344 54.625 88.597656 53.789062 88.9375 53.117188 C 89.433594 52.128906 89.855469 52.59375 90.597656 52.046875 C 92.542969 50.613281 90.640625 50.75 90.601562 48.796875 C 90.566406 47.007812 91.933594 47.839844 92.804688 48.972656 C 93.488281 49.863281 92.910156 50.378906 94.015625 50.425781 C 94.195312 50.429688 95.609375 49.625 95.773438 49.480469 C 97.664062 47.769531 95.5 47.921875 95.3125 46.289062 C 95.160156 45.011719 96.945312 44.21875 96.859375 42.710938 C 95.910156 42.644531 95.964844 43.785156 95.277344 43.777344 C 94.597656 43.769531 93.507812 42.160156 92.921875 41.78125 C 90.269531 40.046875 92.160156 42.675781 93.128906 43.914062 C 93.75 44.707031 95.378906 46.835938 94.914062 47.902344 C 94.019531 49.972656 92.679688 45.632812 90.808594 46.136719 C 90.105469 47.21875 89.570312 48.832031 88.125 47.675781 C 87.183594 46.921875 87.015625 44.734375 87.3125 43.765625 C 87.828125 42.050781 88.78125 41.675781 88.578125 39.632812 C 88.449219 38.3125 87.574219 35.695312 89.148438 34.808594 C 92.171875 33.113281 93.171875 39.378906 95.988281 39.136719 C 98.253906 38.945312 95.429688 36.59375 94.917969 35.808594 C 93.527344 33.671875 95.621094 34.542969 95.859375 32.804688 C 95.878906 32.675781 95.945312 32.410156 95.96875 32.292969 C 95.273438 31.972656 94.429688 31.722656 93.878906 31.128906 C 93.28125 30.484375 93.472656 29.101562 92.894531 28.65625 C 92.328125 28.214844 90.792969 28.460938 90.058594 28.300781 C 89.019531 28.070312 88.011719 27.527344 87.03125 27.191406 C 86.984375 26.355469 86.859375 24.527344 87.183594 24.527344 C 89.695312 24.527344 101.03125 27.761719 112.71875 39.449219 C 124.40625 51.136719 126.925781 66.0625 126.925781 66.0625 C 126.363281 64.546875 125.566406 61.042969 123.695312 60.621094 Z M 119.011719 100.59375 C 118.800781 100.046875 118.882812 99.421875 119.089844 98.789062 C 119.875 97.609375 120.59375 96.398438 120.949219 95.015625 C 121.089844 94.449219 121.203125 93.878906 121.289062 93.296875 C 121.363281 93.199219 121.445312 93.097656 121.53125 93.015625 C 123.445312 95.042969 121.777344 100.195312 119.011719 100.59375 Z M 80.011719 51.707031 C 81.660156 51.480469 81.875 55.144531 80.441406 54.683594 C 80.175781 54.726562 79.890625 54.726562 79.65625 54.707031 C 79.144531 53.65625 80.132812 52.847656 80.011719 51.707031 Z M 82.328125 48.480469 C 83.039062 48.625 83.003906 49.78125 83.355469 50.246094 C 83.835938 50.875 83.9375 51.015625 84.707031 51.460938 C 85.816406 52.105469 88.011719 52.378906 86.601562 54.160156 C 86.132812 54.765625 83.675781 55.757812 83.21875 55.457031 L 82.863281 55.816406 C 82.285156 55.65625 82.234375 52.628906 82.882812 51.867188 C 82.367188 51.421875 80.074219 48.015625 82.328125 48.480469 Z M 73.683594 42.472656 C 73.195312 42.472656 72.628906 42.796875 72.09375 42.714844 C 72.1875 43.125 71.949219 43.691406 72.046875 44.097656 C 70.324219 43.378906 70.277344 45.640625 69.164062 46.300781 C 68 46.992188 67.253906 46.523438 66.277344 47.890625 C 65.617188 48.816406 64.75 52.699219 63.078125 51.136719 L 63.621094 50.421875 C 62.707031 49.636719 61.140625 48.96875 60.785156 47.714844 C 60.257812 45.851562 62.0625 46.019531 62.496094 44.445312 C 62.695312 43.71875 62.023438 43.246094 62.214844 42.726562 C 62.332031 42.398438 63.171875 42.128906 63.398438 41.742188 C 64.191406 40.371094 63.765625 38.878906 64.5 37.457031 C 63.644531 37.09375 62.703125 36.859375 61.980469 36.390625 C 63.359375 35.222656 64.523438 32.777344 66.191406 32.023438 C 67.496094 31.433594 67.972656 32.226562 69.195312 32.214844 C 70.238281 32.207031 71.136719 31.28125 72.253906 31.527344 C 73.644531 31.835938 73.496094 32.601562 73.652344 33.683594 C 73.777344 34.582031 74.09375 36.183594 74.058594 37.109375 C 74.011719 38.332031 72.726562 39.070312 72.5625 40.132812 C 72.34375 41.472656 73.0625 41.457031 73.683594 42.472656 Z M 64.738281 103.6875 C 63.660156 105.527344 65.480469 107.210938 63.796875 108.820312 C 62.421875 110.144531 60.453125 109.8125 58.945312 110.484375 C 56.777344 111.453125 58.253906 113.335938 56.554688 114.757812 C 55.429688 115.703125 52.265625 114.996094 53.351562 117.144531 C 52.492188 117.164062 52.039062 117.691406 52.449219 118.550781 C 52.195312 118.523438 51.839844 118.644531 51.59375 118.609375 C 51.433594 121.308594 55.054688 120.9375 55.683594 123.046875 C 52.9375 123.464844 49.449219 120.257812 47.421875 118.613281 C 44.882812 116.550781 43.140625 114.316406 41.992188 111.246094 C 40.945312 108.429688 39.964844 105.273438 38.574219 102.574219 C 36.953125 99.40625 33.730469 97.484375 33.402344 93.785156 C 33.144531 90.921875 34.917969 88.210938 33.996094 85.617188 C 33.632812 84.597656 32.816406 83.601562 32.328125 82.617188 C 31.644531 81.265625 31.757812 79.785156 31.253906 78.472656 C 30.78125 77.234375 29.398438 76.230469 28.558594 75.15625 C 27.460938 73.753906 27.128906 72.53125 26.578125 70.910156 C 26.003906 69.234375 25.542969 68.171875 26.027344 66.417969 C 26.519531 64.609375 27.21875 62.773438 27.292969 60.851562 C 27.316406 60.242188 27.363281 59.660156 27.296875 59.226562 C 26.460938 60.734375 27.171875 62.726562 26.359375 64.234375 C 26.285156 64.222656 25.960938 64.230469 25.878906 64.238281 C 25.601562 58.195312 29.28125 51.570312 32.375 46.652344 C 33.445312 44.949219 34.691406 43.578125 36.105469 42.148438 C 37.832031 40.402344 39.179688 38.285156 40.960938 36.5625 C 43.203125 34.40625 46.015625 32.023438 48.464844 30.234375 C 49.511719 29.46875 54.117188 27.507812 55.167969 27.21875 C 57.144531 26.679688 58.042969 24.527344 58.042969 27.402344 C 58.042969 28.46875 54.6875 28.992188 54.136719 29.964844 C 53.707031 30.714844 53.863281 31.542969 53.40625 32.308594 C 53.003906 32.984375 51.53125 33.585938 51.746094 34.597656 C 52.21875 36.800781 54.972656 34.480469 56.027344 34.371094 C 58.847656 34.070312 55.945312 35.71875 55.914062 37.265625 C 56.226562 37.132812 56.789062 37.253906 57.117188 37.140625 C 57.546875 39.0625 51.515625 40.234375 49.953125 41.207031 C 47.253906 42.886719 48.027344 45.042969 48.179688 48.054688 C 50.648438 48.601562 50.453125 41.316406 53.726562 42.683594 C 55.054688 43.234375 53.988281 44.5 54.621094 45.527344 C 55.339844 46.675781 56.082031 46.136719 56.425781 47.902344 C 56.550781 48.535156 56.359375 49.101562 56.59375 49.707031 C 56.804688 50.265625 57.605469 50.75 57.828125 51.363281 C 58.304688 52.703125 58.054688 53.382812 56.757812 53.976562 C 54.652344 54.945312 50.359375 53.226562 49.433594 56.328125 C 50.589844 56.394531 51.59375 55.816406 52.0625 57.25 C 52.554688 58.75 51.292969 58.878906 49.984375 58.660156 C 49.476562 55.925781 45.386719 60.8125 44.554688 61.253906 C 42.859375 62.152344 42.898438 61.851562 41.714844 63.558594 C 40.859375 64.785156 40.054688 64.535156 38.972656 65.519531 C 37.738281 66.644531 37.371094 74.1875 36.285156 68.40625 C 36.050781 67.164062 36.089844 66.023438 35.035156 65.121094 C 34.738281 64.863281 33.316406 64.25 32.996094 64.121094 C 32.355469 63.863281 32.261719 63.433594 31.457031 63.574219 C 31.136719 64.910156 28.945312 71.402344 31.390625 71.613281 C 31.769531 70.957031 31.558594 69.855469 32.328125 69.652344 C 33.082031 69.449219 34.007812 70.46875 34.136719 71.097656 C 34.5625 73.257812 31.957031 73.386719 33.097656 75.734375 C 33.445312 76.4375 34.070312 76.949219 34.3125 77.753906 C 34.621094 78.785156 34.300781 79.464844 34.804688 80.460938 C 35.445312 81.738281 36.566406 83.003906 37.863281 83.488281 C 38.351562 82.605469 38.675781 81.113281 39.882812 81.347656 C 41.058594 81.574219 40.789062 83.074219 40.808594 84.023438 C 42.445312 84.125 43.609375 83.675781 45.136719 84.546875 C 46.386719 85.257812 46.953125 86.300781 48.011719 87.238281 C 50.402344 89.367188 53.394531 90.15625 55.308594 92.902344 C 55.589844 93.3125 55.671875 94.160156 56.101562 94.441406 C 56.957031 95 58.558594 94.710938 59.628906 95.386719 C 60.894531 96.191406 61.769531 97.265625 63.078125 98.03125 C 64.171875 98.675781 66.234375 99.359375 66.824219 100.597656 C 67.765625 102.597656 65.59375 102.230469 64.738281 103.6875 Z M 75.398438 20.925781 C 45.65625 20.925781 21.539062 45.042969 21.539062 74.789062 C 21.539062 104.535156 45.65625 128.648438 75.398438 128.648438 C 105.144531 128.648438 129.261719 104.535156 129.261719 74.789062 C 129.261719 45.042969 105.144531 20.925781 75.398438 20.925781 "/>
    <path style=" stroke:none;fill-rule:nonzero;fill:rgb(13.72549%,12.156863%,12.54902%);fill-opacity:1;" d="M 80.167969 53.570312 C 80.261719 53.628906 80.355469 53.667969 80.441406 53.695312 C 80.605469 53.667969 80.757812 53.632812 80.882812 53.570312 L 80.167969 53.570312 "/>
  </g>
</svg>