<?xml version="1.0" encoding="UTF-8" standalone="yes"?>
<svg xmlns="http://www.w3.org/2000/svg" width="200" height="200" viewBox="0 0 150 150" version="1.1"><path d="M74.5 38.1C74.5 58.2 58.2 74.5 38.1 74.5 18 74.5 1.7 58.2 1.7 38.1 1.7 18 18 1.7 38.1 1.7 58.2 1.7 74.5 18 74.5 38.1ZM74.5 38.1" transform="matrix(1.973684,0,0,1.973684,0,0)" style="fill:none;stroke-width:3.5;stroke:rgb(13.72549%,12.156863%,12.54902%)"/><path d="M79.1 55.2L59 102.9 66.9 102.9 87 55.2ZM54.1 60.9L20.2 75 20.2 80.8 54.1 94.9 54.1 87.6 30.3 77.9 54.1 68.2ZM93.6 60.9L93.6 68.2 117.3 77.9 93.6 87.6 93.6 94.9 127.5 80.8 127.5 75ZM93.6 60.9" style=" stroke:none;fill:rgb(0%,0%,0%)"/></svg>