<?xml version="1.0" standalone="no"?>
<!DOCTYPE svg PUBLIC "-//W3C//DTD SVG 20010904//EN"
 "http://www.w3.org/TR/2001/REC-SVG-20010904/DTD/svg10.dtd">
<svg version="1.0" xmlns="http://www.w3.org/2000/svg"
 width="212.000000pt" height="212.000000pt" viewBox="0 0 212.000000 212.000000"
 preserveAspectRatio="xMidYMid meet">
<metadata>
Created by potrace 1.11, written by Peter Selinger 2001-2013
</metadata>
<g transform="translate(0.000000,212.000000) scale(0.100000,-0.100000)"
fill="#000000" stroke="none">
<path d="M906 2090 c-165 -26 -352 -105 -477 -199 -334 -254 -486 -684 -384
-1086 78 -307 276 -550 560 -686 182 -87 365 -120 554 -99 253 28 465 130 641
310 100 102 180 226 227 350 54 146 67 217 66 385 0 129 -4 164 -27 250 -97
369 -386 657 -754 751 -109 28 -305 40 -406 24z m373 -111 c218 -51 440 -205
562 -389 113 -171 163 -338 161 -545 -3 -451 -324 -835 -770 -921 -94 -18
-260 -18 -354 0 -351 68 -640 332 -739 676 -30 107 -38 326 -14 441 70 345
319 621 655 723 161 49 331 55 499 15z"/>
<path d="M1101 1318 c-5 -13 -64 -153 -131 -313 -67 -159 -126 -300 -131 -312
-8 -22 -6 -23 45 -23 l53 0 137 325 c75 178 136 329 136 335 0 5 -22 10 -50
10 -43 0 -52 -3 -59 -22z"/>
<path d="M515 1156 l-220 -93 0 -42 0 -42 213 -89 c280 -117 252 -111 252 -53
l0 49 -160 65 c-88 35 -160 66 -160 69 0 4 72 35 160 70 l160 65 0 48 c0 31
-4 47 -12 46 -7 0 -112 -42 -233 -93z"/>
<path d="M1312 1203 l3 -48 158 -64 c86 -36 157 -67 157 -70 0 -3 -72 -35
-160 -71 l-160 -65 0 -47 c0 -27 3 -48 8 -48 4 0 108 42 232 94 l225 94 0 43
0 43 -220 92 c-121 51 -226 93 -233 93 -9 1 -12 -12 -10 -46z"/>
</g>
</svg>
