<?xml version="1.0" encoding="UTF-8" standalone="yes"?>
<svg xmlns="http://www.w3.org/2000/svg" xmlns:xlink="http://www.w3.org/1999/xlink" width="200px" height="200px" viewBox="0 0 150 150" version="1.1">
  <g id="surface1">
    <path style="fill:none;stroke-width:3.5;stroke-linecap:butt;stroke-linejoin:miter;stroke:rgb(13.72549%,12.156863%,12.54902%);stroke-opacity:1;stroke-miterlimit:10;" d="M 74.476042 38.112813 C 74.476042 58.197396 58.195417 74.478021 38.112813 74.478021 C 18.028229 74.478021 1.749583 58.197396 1.749583 38.112813 C 1.749583 18.032188 18.028229 1.749583 38.112813 1.749583 C 58.195417 1.749583 74.476042 18.032188 74.476042 38.112813 Z M 74.476042 38.112813 " transform="matrix(1.973684,0,0,1.973684,0,0)"/>
    <path style=" stroke:none;fill-rule:nonzero;fill:rgb(0%,0%,0%);fill-opacity:1;" d="M 79.0625 55.1875 L 59.015625 102.925781 L 66.851562 102.925781 L 86.957031 55.1875 Z M 54.082031 60.925781 L 20.160156 74.988281 L 20.160156 80.785156 L 54.082031 94.910156 L 54.082031 87.628906 L 30.335938 77.945312 L 54.082031 68.203125 Z M 93.617188 60.925781 L 93.617188 68.203125 L 117.300781 77.886719 L 93.617188 87.628906 L 93.617188 94.910156 L 127.480469 80.785156 L 127.480469 74.988281 Z M 93.617188 60.925781 "/>
  </g>
</svg>