<?xml version="1.0" encoding="UTF-8" standalone="yes"?>
<svg xmlns="http://www.w3.org/2000/svg" xmlns:xlink="http://www.w3.org/1999/xlink" width="200" height="200" viewBox="0 0 150 150" version="1.1">
<style>
.s0{
         stroke:none;
        fill-rule:nonzero;
        fill:rgb(100%,100%,100%);
}
.s1{
         stroke:none;
        fill-rule:evenodd;
        fill:rgb(13.72549%,12.156863%,12.54902%);
}

</style>  
  <path
     d="m 146.4218,74.552275 c 0,37.102005 -31.66417,67.177865 -70.743834,67.177865 -39.064831,0 -70.7438261,-30.07586 -70.7438261,-67.177865 0,-37.087922 31.6789951,-67.1637781 70.7438261,-67.1637781 39.079664,0 70.743834,30.0758561 70.743834,67.1637781 z m 0,0"
     style="fill:none;stroke:#211e1e;stroke-width:6.63294125;stroke-miterlimit:10"
     id="path4"/>
  <path
     d="M 77.477161,114.02812 39.598846,75.85374 77.477161,37.684779 90.10429,50.40725 64.850032,75.85374 77.476393,88.578529 115.35471,50.409572 82.358268,17.157923 c -2.694402,-2.717563 -7.06474,-2.717563 -9.761446,0 L 19.228767,70.938751 c -2.694401,2.715241 -2.694401,7.119381 0,9.836945 L 72.59759,134.55498 c 2.696706,2.71756 7.067044,2.71756 9.761446,0 L 135.72785,80.775696 c 2.6944,-2.717564 2.6944,-7.121704 0,-9.836945 l -7.74756,-7.805159 z"
     class="s1"
     id="path6"
     style="fill:#211e1e;fill-rule:evenodd;stroke:none;stroke-width:0.77103812" />
</svg>
