<?xml version="1.0" encoding="UTF-8" standalone="yes"?>
<svg xmlns="http://www.w3.org/2000/svg" width="197.3" height="197.3" viewBox="0 0 148 148" version="1.1"><path d="M74 0C33.1 0 0 34 0 75.9 0 109.4 21.2 137.8 50.6 147.9 54.3 148.6 55.7 146.2 55.7 144.2 55.7 142.4 55.6 137.6 55.6 131.3 35 135.9 30.6 121.1 30.6 121.1 27.3 112.4 22.4 110 22.4 110 15.7 105.3 22.9 105.4 22.9 105.4 30.4 106 34.3 113.2 34.3 113.2 40.9 124.8 51.6 121.5 55.8 119.5 56.5 114.6 58.4 111.3 60.5 109.4 44.1 107.5 26.8 101 26.8 71.9 26.8 63.6 29.7 56.9 34.4 51.5 33.6 49.6 31.1 41.9 35.1 31.5 35.1 31.5 41.3 29.4 55.5 39.2 61.4 37.6 67.7 36.7 74 36.7 80.3 36.7 86.6 37.6 92.5 39.2 106.7 29.4 112.9 31.5 112.9 31.5 116.9 41.9 114.4 49.6 113.6 51.5 118.3 56.9 121.2 63.6 121.2 71.9 121.2 101.1 103.9 107.5 87.4 109.3 90.1 111.7 92.4 116.3 92.4 123.4 92.4 133.5 92.3 141.7 92.3 144.2 92.3 146.2 93.7 148.6 97.4 147.9 126.8 137.8 148 109.4 148 75.9 148 34 114.9 0 74 0" style=" stroke:none;fill:rgb(10.588235%,9.411765%,9.019608%)"/></svg>