<?xml version="1.0" encoding="UTF-8" standalone="yes"?>
<svg xmlns="http://www.w3.org/2000/svg" xmlns:xlink="http://www.w3.org/1999/xlink" width="197.33333333333331px" height="197.33333333333331px" viewBox="0 0 148 148" version="1.1">
  <g id="surface1">
    <path style=" stroke:none;fill-rule:evenodd;fill:rgb(10.588235%,9.411765%,9.019608%);fill-opacity:1;" d="M 73.992188 0 C 33.136719 0 0 33.96875 0 75.875 C 0 109.390625 21.203125 137.832031 50.605469 147.871094 C 54.308594 148.5625 55.660156 146.222656 55.660156 144.210938 C 55.660156 142.40625 55.59375 137.636719 55.558594 131.308594 C 34.976562 135.890625 30.632812 121.132812 30.632812 121.132812 C 27.265625 112.367188 22.414062 110.035156 22.414062 110.035156 C 15.695312 105.332031 22.921875 105.425781 22.921875 105.425781 C 30.351562 105.960938 34.257812 113.246094 34.257812 113.246094 C 40.859375 124.835938 51.578125 121.488281 55.792969 119.546875 C 56.46875 114.644531 58.378906 111.300781 60.492188 109.40625 C 44.0625 107.488281 26.785156 100.980469 26.785156 71.90625 C 26.785156 63.621094 29.667969 56.851562 34.402344 51.546875 C 33.640625 49.628906 31.101562 41.914062 35.128906 31.46875 C 35.128906 31.46875 41.339844 29.429688 55.476562 39.242188 C 61.378906 37.558594 67.710938 36.722656 74.003906 36.6875 C 80.289062 36.722656 86.617188 37.558594 92.527344 39.242188 C 106.65625 29.429688 112.855469 31.46875 112.855469 31.46875 C 116.894531 41.914062 114.355469 49.628906 113.597656 51.546875 C 118.339844 56.851562 121.203125 63.621094 121.203125 71.90625 C 121.203125 101.054688 103.898438 107.46875 87.417969 109.347656 C 90.070312 111.6875 92.4375 116.320312 92.4375 123.398438 C 92.4375 133.539062 92.347656 141.722656 92.347656 144.210938 C 92.347656 146.238281 93.679688 148.601562 97.433594 147.859375 C 126.816406 137.804688 148 109.386719 148 75.875 C 148 33.96875 114.863281 0 73.992188 0 "/>
  </g>
</svg>