<?xml version="1.0" standalone="no"?>
<!DOCTYPE svg PUBLIC "-//W3C//DTD SVG 20010904//EN"
 "http://www.w3.org/TR/2001/REC-SVG-20010904/DTD/svg10.dtd">
<svg version="1.0" xmlns="http://www.w3.org/2000/svg"
 width="212.000000pt" height="212.000000pt" viewBox="0 0 212.000000 212.000000"
 preserveAspectRatio="xMidYMid meet">
<metadata>
Created by potrace 1.11, written by Peter Selinger 2001-2013
</metadata>
<g transform="translate(0.000000,212.000000) scale(0.100000,-0.100000)"
fill="#000000" stroke="none">
<path d="M904 2095 c-371 -57 -687 -316 -815 -666 -16 -45 -37 -114 -46 -153
-22 -96 -22 -326 0 -422 93 -413 398 -718 811 -811 96 -22 326 -22 422 0 437
99 753 433 819 867 19 119 19 190 1 310 -87 572 -621 964 -1192 875z m336 -96
c382 -69 682 -370 761 -764 17 -83 14 -275 -5 -362 -81 -375 -368 -661 -740
-738 -102 -21 -280 -21 -381 0 -347 72 -628 335 -727 680 -20 69 -23 103 -23
250 0 147 3 180 23 249 140 483 603 773 1092 685z"/>
<path d="M1398 1798 c-62 -11 -78 -28 -28 -28 19 0 33 -6 37 -17 4 -9 -31
-147 -77 -307 -46 -160 -83 -295 -84 -300 -1 -5 19 -21 44 -35 61 -35 146 -36
213 -3 178 88 262 358 133 427 -48 26 -115 16 -172 -24 -24 -18 -44 -30 -44
-27 0 5 73 267 86 309 6 20 -14 21 -108 5z m205 -339 c53 -100 -46 -317 -158
-348 -44 -12 -113 1 -121 23 -7 18 63 253 87 292 33 54 99 87 149 74 15 -3 33
-20 43 -41z"/>
<path d="M870 1515 c-81 -43 -164 -150 -211 -274 -12 -31 -65 -230 -119 -443
l-98 -388 74 0 c61 0 74 3 74 16 0 40 176 725 222 862 55 165 80 202 139 202
34 0 33 2 12 -40 -14 -30 -14 -36 -2 -59 23 -41 62 -40 104 2 35 35 47 84 27
113 -27 41 -151 47 -222 9z"/>
</g>
</svg>
