<?xml version="1.0" encoding="UTF-8" standalone="yes"?>
<svg xmlns="http://www.w3.org/2000/svg" width="200" height="200" viewBox="0 0 150 150" version="1.1"><style>.s0{ stroke:none;fill:rgb(13.72549%,12.156863%,12.54902%);}</style><path d="M74.5 38.1C74.5 58.2 58.2 74.5 38.1 74.5 18 74.5 1.7 58.2 1.7 38.1 1.7 18 18 1.7 38.1 1.7 58.2 1.7 74.5 18 74.5 38.1ZM74.5 38.1" transform="matrix(1.973684,0,0,1.973684,0,0)" style="fill:none;stroke-width:3.5;stroke:rgb(13.72549%,12.156863%,12.54902%)"/><path d="M30.4 122.3C34.5 105.9 38.5 89.5 42.7 73.1 45.2 63.6 48.3 54.3 55.4 47.1 60.3 42.1 66.2 39.6 73.2 41.1 77.3 41.9 78.7 44.8 77.5 48.6 76.1 52.7 72 55.1 68.6 53.4 67.7 52.9 67 50.9 67.1 49.7 67.2 48.2 68.2 46.8 69.1 45 64.3 43.8 61.6 46.3 60.3 49.8 57.5 57.1 55 64.6 53 72.1 48.9 87.9 45.1 103.8 41.2 119.6 41 120.5 41 121.4 40.9 122.3 37.4 122.3 33.9 122.3 30.4 122.3" class="s0"/><path d="M93.3 70.4C95.7 71.7 97.8 72.4 99.7 72.4 101.8 72.4 104.1 71.6 106.4 70 108.7 68.5 110.7 65.8 112.4 62.1 114.1 58.3 114.9 54.6 114.9 50.8 114.9 48.5 114.4 46.8 113.2 45.5 112.1 44.3 110.8 43.6 109.3 43.6 107 43.6 104.8 44.5 102.7 46.3 100.5 48.2 98.9 50.7 98 53.9ZM107.4 21.2L100.2 46.5C102.6 44.1 104.6 42.4 106.3 41.5 108.1 40.6 109.9 40.1 111.8 40.1 114.5 40.1 116.7 41 118.4 42.8 120.1 44.6 120.9 47 120.9 50.1 120.9 54 119.8 57.9 117.6 61.8 115.3 65.7 112.5 68.7 109.1 70.9 105.7 73 102.4 74.1 99.1 74.1 95.4 74.1 91.7 72.7 87.8 70L98.9 31.7C99.7 28.8 100.2 27 100.2 26.5 100.2 25.9 100 25.4 99.6 25.1 99 24.6 98.2 24.4 97.1 24.4 96.6 24.4 95.8 24.5 94.8 24.7L94.8 23.3 107.4 21.2" class="s0"/></svg>