<?xml version="1.0" encoding="UTF-8" standalone="yes"?>
<svg xmlns="http://www.w3.org/2000/svg" xmlns:xlink="http://www.w3.org/1999/xlink" width="200px" height="200px" viewBox="0 0 150 150" version="1.1">
  <g id="surface1">
    <path style="fill:none;stroke-width:3.5;stroke-linecap:butt;stroke-linejoin:miter;stroke:rgb(13.72549%,12.156863%,12.54902%);stroke-opacity:1;stroke-miterlimit:10;" d="M 74.476042 38.112813 C 74.476042 58.195417 58.195417 74.478021 38.112813 74.478021 C 18.028229 74.478021 1.749583 58.195417 1.749583 38.112813 C 1.749583 18.030208 18.028229 1.749583 38.112813 1.749583 C 58.195417 1.749583 74.476042 18.030208 74.476042 38.112813 Z M 74.476042 38.112813 " transform="matrix(1.973684,0,0,1.973684,0,0)"/>
    <path style=" stroke:none;fill-rule:evenodd;fill:rgb(13.72549%,12.156863%,12.54902%);fill-opacity:1;" d="M 30.363281 122.25 C 34.480469 105.867188 38.488281 89.457031 42.738281 73.109375 C 45.207031 63.621094 48.257812 54.296875 55.390625 47.058594 C 60.273438 42.105469 66.175781 39.625 73.175781 41.0625 C 77.273438 41.902344 78.722656 44.777344 77.480469 48.570312 C 76.121094 52.710938 72.023438 55.121094 68.628906 53.394531 C 67.679688 52.910156 66.976562 50.914062 67.0625 49.671875 C 67.164062 48.203125 68.238281 46.796875 69.054688 45.019531 C 64.300781 43.824219 61.5625 46.328125 60.269531 49.769531 C 57.507812 57.097656 55.019531 64.570312 53.027344 72.148438 C 48.863281 87.921875 45.089844 103.800781 41.1875 119.644531 C 40.980469 120.484375 41.003906 121.378906 40.921875 122.25 C 37.402344 122.25 33.886719 122.25 30.363281 122.25 "/>
    <path style=" stroke:none;fill-rule:nonzero;fill:rgb(13.72549%,12.156863%,12.54902%);fill-opacity:1;" d="M 93.265625 70.375 C 95.699219 71.71875 97.847656 72.386719 99.699219 72.386719 C 101.84375 72.386719 104.070312 71.601562 106.371094 70.027344 C 108.675781 68.457031 110.671875 65.808594 112.367188 62.078125 C 114.058594 58.347656 114.90625 54.585938 114.90625 50.78125 C 114.90625 48.539062 114.351562 46.785156 113.246094 45.519531 C 112.136719 44.25 110.824219 43.617188 109.3125 43.617188 C 107.046875 43.617188 104.828125 44.523438 102.664062 46.339844 C 100.488281 48.15625 98.941406 50.6875 98.019531 53.925781 Z M 107.414062 21.246094 L 100.207031 46.503906 C 102.550781 44.070312 104.589844 42.398438 106.335938 41.496094 C 108.078125 40.597656 109.898438 40.144531 111.800781 40.144531 C 114.484375 40.144531 116.675781 41.03125 118.382812 42.8125 C 120.085938 44.59375 120.941406 47.003906 120.941406 50.050781 C 120.941406 53.976562 119.816406 57.878906 117.578125 61.769531 C 115.335938 65.65625 112.515625 68.683594 109.128906 70.851562 C 105.742188 73.019531 102.402344 74.105469 99.117188 74.105469 C 95.433594 74.105469 91.65625 72.730469 87.78125 69.972656 L 98.894531 31.699219 C 99.746094 28.75 100.175781 27.019531 100.175781 26.507812 C 100.175781 25.875 99.980469 25.398438 99.585938 25.082031 C 99.03125 24.644531 98.199219 24.425781 97.101562 24.425781 C 96.59375 24.425781 95.808594 24.511719 94.765625 24.679688 L 94.765625 23.292969 L 107.414062 21.246094 "/>
  </g>
</svg>