<?xml version="1.0" encoding="UTF-8" standalone="yes"?>
<svg xmlns="http://www.w3.org/2000/svg" xmlns:xlink="http://www.w3.org/1999/xlink" width="200" height="200" viewBox="0 0 150 150" version="1.1">
  <style>
.s0{
         stroke:none;
        fill-rule:nonzero;
        fill:rgb(100%,100%,100%);
}
.s1{
         stroke:none;
        fill-rule:evenodd;
        fill:rgb(13.72549%,12.156863%,12.54902%);
}

</style>
  <path
     d="m 144.16846,74.800787 c 0,37.102003 -31.66417,67.177863 -70.743835,67.177863 -39.06483,0 -70.7438296,-30.07586 -70.7438296,-67.177863 0,-37.08792 31.6789996,-67.16378 70.7438296,-67.16378 39.079665,0 70.743835,30.07586 70.743835,67.16378 z m 0,0"
     style="fill:none;stroke:#211e1e;stroke-width:6.63294125;stroke-miterlimit:10"
     id="path4" />
  <g
     id="g15"
     transform="matrix(0.2597996,0,0,0.2881028,17.161017,7.2105145)">
    <path
       d="M 411.999,130.626 H 73.567 v -5.002 c 0,-5.375 4.373,-9.749 9.749,-9.749 h 282.935 c 13.646,0 24.749,-11.103 24.749,-24.749 0,-13.647 -11.103,-24.75 -24.749,-24.75 h -68.445 c -4.143,0 -7.5,3.358 -7.5,7.5 0,4.142 3.357,7.5 7.5,7.5 h 68.445 c 5.376,0 9.749,4.374 9.749,9.75 0,5.375 -4.373,9.749 -9.749,9.749 H 83.316 c -13.646,0 -24.749,11.103 -24.749,24.749 v 5.002 H 21.634 C 9.705,130.626 0,140.332 0,152.26 v 193.362 c 0,11.929 9.705,21.633 21.634,21.633 h 390.365 c 11.929,0 21.633,-9.705 21.633,-21.633 V 152.26 c 0,-11.928 -9.704,-21.634 -21.633,-21.634 z m 6.633,214.996 c 0,3.658 -2.976,6.633 -6.633,6.633 H 21.634 C 17.976,352.255 15,349.279 15,345.622 V 152.26 c 0,-3.658 2.976,-6.634 6.634,-6.634 h 390.365 c 3.657,0 6.633,2.976 6.633,6.634 z"
       id="path5"/>
    <path
       d="M 401.132,155.627 H 32.5 c -4.143,0 -7.5,3.358 -7.5,7.5 v 171.628 c 0,4.142 3.357,7.5 7.5,7.5 h 368.632 c 4.143,0 7.5,-3.358 7.5,-7.5 V 163.127 c 0,-4.142 -3.358,-7.5 -7.5,-7.5 z m -115.377,15 h 46.438 v 27.875 h -46.438 z m -184.317,85.816 h 46.438 v 27.937 h -46.438 z m -30.718,-15 v -27.941 h 46.438 v 27.941 z m 61.438,0 v -27.941 h 46.438 v 27.941 z m 30.719,15 h 46.439 v 27.937 h -46.439 z m 30.72,-15 v -27.941 h 46.438 v 27.941 z m 30.719,15 h 46.438 v 27.937 h -46.438 z m 30.719,-15 v -27.941 h 46.438 v 27.941 z m 30.72,15 h 46.438 v 27.937 h -46.438 z m 30.719,-15 v -27.941 h 32.605 v 27.941 z m -92.158,-70.816 h 46.438 v 27.875 h -46.438 z m -61.439,0 h 46.439 v 27.875 h -46.439 z m -61.439,0 h 46.438 v 27.875 h -46.438 z m -61.438,0 h 46.438 v 27.875 H 40 Z m 0,42.875 h 15.72 v 27.941 H 40 Z m 0,42.941 H 86.438 V 284.38 H 40 Z m 15.72,70.812 H 40 V 299.38 h 15.72 z m 61.438,0 H 70.72 V 299.38 h 46.438 z m 61.439,0 H 132.159 V 299.38 h 46.438 z m 61.438,0 H 193.597 V 299.38 h 46.438 z m 61.439,0 H 255.036 V 299.38 h 46.438 z m 61.438,0 H 316.474 V 299.38 h 46.438 z m 30.72,0 h -15.72 V 299.38 h 15.72 z m 0,-42.875 h -46.438 v -27.937 h 9.386 c 4.143,0 7.5,-3.358 7.5,-7.5 v -35.441 h 29.553 v 70.878 z m 0,-85.878 h -46.438 v -27.875 h 46.438 z"
       id="path7" />
    <path
       d="m 270.119,76.745 c -0.022,-0.052 -0.035,-0.082 -0.043,-0.102 0.038,0.09 0.174,0.41 0.043,0.102 z"
       id="path9" />
    <path
       d="m 282.35,79.185 c 4.21,-4.337 1.792,-11.93 -4.298,-12.735 -5.578,-0.738 -10.16,5.034 -7.932,10.295 2.061,4.874 8.44,6.114 12.23,2.44 z"
       id="path11" />
    <path
       d="m 270.076,76.643 c -0.011,-0.027 -0.015,-0.035 0,0 z"
       id="path13" />
  </g>
</svg>
