<?xml version="1.0" encoding="UTF-8" standalone="yes"?>
<svg xmlns="http://www.w3.org/2000/svg" xmlns:xlink="http://www.w3.org/1999/xlink" width="200px" height="200px" viewBox="0 0 150 150" version="1.1">
  <g id="surface1">
    <path style="fill:none;stroke-width:3.5;stroke-linecap:butt;stroke-linejoin:miter;stroke:rgb(13.72549%,12.156863%,12.54902%);stroke-opacity:1;stroke-miterlimit:10;" d="M 74.478021 38.112813 C 74.478021 58.195417 58.197396 74.476042 38.114792 74.476042 C 18.032188 74.476042 1.749583 58.195417 1.749583 38.112813 C 1.749583 18.030208 18.032188 1.749583 38.114792 1.749583 C 58.197396 1.749583 74.478021 18.030208 74.478021 38.112813 Z M 74.478021 38.112813 " transform="matrix(1.973684,0,0,1.973684,0,0)"/>
    <path style=" stroke:none;fill-rule:nonzero;fill:rgb(13.72549%,12.156863%,12.54902%);fill-opacity:1;" d="M 25.21875 62.582031 C 25.21875 62.582031 25.21875 62.582031 25.21875 62.585938 L 25.21875 104.507812 C 25.21875 105.433594 25.476562 106.296875 25.917969 107.039062 L 64.148438 80.703125 L 25.21875 62.582031 "/>
    <path style=" stroke:none;fill-rule:nonzero;fill:rgb(13.72549%,12.156863%,12.54902%);fill-opacity:1;" d="M 47.273438 68.320312 L 42.359375 48.59375 L 99.0625 34.464844 L 107.238281 67.277344 L 125.273438 58.882812 C 124.886719 58.542969 106.496094 47.300781 106.496094 47.300781 L 102.550781 31.484375 C 102.277344 30.382812 101.164062 29.714844 100.066406 29.988281 L 84.546875 33.855469 L 78.238281 29.988281 C 76.28125 28.738281 74.496094 29.9375 74.496094 29.9375 L 56.609375 40.8125 L 39.375 45.105469 C 38.277344 45.378906 37.609375 46.496094 37.882812 47.59375 L 38.878906 51.59375 C 38.878906 51.59375 27.40625 58.535156 26.996094 58.882812 L 47.273438 68.320312 "/>
    <path style=" stroke:none;fill-rule:nonzero;fill:rgb(13.72549%,12.156863%,12.54902%);fill-opacity:1;" d="M 127.050781 62.582031 L 88.121094 80.703125 L 126.34375 107.039062 C 126.792969 106.296875 127.050781 105.433594 127.050781 104.507812 L 127.050781 62.585938 C 127.050781 62.582031 127.050781 62.582031 127.050781 62.582031 "/>
    <path style=" stroke:none;fill-rule:nonzero;fill:rgb(13.72549%,12.156863%,12.54902%);fill-opacity:1;" d="M 76.242188 79.179688 C 75.429688 79.179688 74.628906 79.121094 73.832031 79.011719 L 29.703125 109.421875 C 29.847656 109.433594 122.421875 109.433594 122.566406 109.421875 L 78.46875 79.035156 C 77.722656 79.128906 76.980469 79.179688 76.242188 79.179688 "/>
    <path style=" stroke:none;fill-rule:nonzero;fill:rgb(13.72549%,12.156863%,12.54902%);fill-opacity:1;" d="M 79.355469 57.925781 L 79.859375 62.515625 C 79.328125 64.632812 77.777344 66.148438 76.007812 66.230469 C 73.65625 66.34375 71.59375 63.949219 71.449219 60.992188 C 71.308594 57.988281 73.113281 55.453125 75.484375 55.339844 C 75.539062 55.335938 75.597656 55.335938 75.652344 55.335938 C 77.140625 55.335938 78.539062 56.320312 79.355469 57.925781 Z M 75.304688 51.535156 C 70.835938 51.753906 67.40625 56.074219 67.644531 61.171875 C 67.886719 66.144531 71.488281 70.042969 75.84375 70.042969 C 75.960938 70.042969 76.074219 70.039062 76.1875 70.035156 C 78.933594 69.902344 81.371094 68.175781 82.730469 65.59375 C 83.761719 66.246094 84.972656 66.621094 86.253906 66.621094 C 86.46875 66.621094 86.683594 66.609375 86.902344 66.585938 C 90.398438 66.25 92.769531 63.214844 92.441406 59.519531 C 92.414062 58.855469 92.292969 57.453125 92.28125 57.285156 C 91.851562 52.484375 89.84375 48.679688 86.472656 46.28125 C 82.769531 43.648438 77.644531 42.882812 72.40625 44.1875 C 72.382812 44.191406 72.359375 44.203125 72.335938 44.210938 C 72.3125 44.214844 72.285156 44.21875 72.265625 44.226562 C 68.003906 45.285156 64.414062 47.941406 62.152344 51.699219 C 59.894531 55.464844 59.234375 59.878906 60.292969 64.136719 C 61.960938 70.835938 67.542969 75.546875 74.003906 76.4375 C 74.734375 76.539062 75.480469 76.59375 76.234375 76.59375 C 76.917969 76.59375 77.609375 76.550781 78.300781 76.460938 C 78.933594 76.378906 79.570312 76.261719 80.203125 76.105469 C 83.5 75.285156 86.421875 73.496094 88.636719 70.933594 C 89.328125 70.140625 89.242188 68.941406 88.449219 68.25 C 87.652344 67.5625 86.449219 67.648438 85.765625 68.441406 C 84.058594 70.40625 81.820312 71.78125 79.28125 72.410156 C 78.261719 72.667969 77.238281 72.785156 76.234375 72.785156 C 70.578125 72.785156 65.414062 68.949219 63.984375 63.214844 C 63.171875 59.941406 63.675781 56.550781 65.414062 53.660156 C 67.148438 50.773438 69.910156 48.734375 73.183594 47.917969 C 73.207031 47.910156 73.226562 47.902344 73.253906 47.894531 C 73.28125 47.890625 73.300781 47.886719 73.328125 47.882812 C 77.488281 46.847656 81.472656 47.394531 84.265625 49.382812 C 86.738281 51.140625 88.15625 53.917969 88.488281 57.621094 C 88.523438 58.046875 88.625 59.253906 88.640625 59.707031 C 88.640625 59.746094 88.644531 59.789062 88.644531 59.828125 C 88.769531 61.089844 88.289062 62.628906 86.535156 62.800781 C 84.988281 62.949219 83.605469 61.8125 83.460938 60.28125 L 82.625 50.914062 C 82.527344 49.867188 81.605469 49.09375 80.554688 49.1875 C 79.511719 49.28125 78.738281 50.207031 78.832031 51.253906 L 78.921875 52.300781 C 77.808594 51.75 76.582031 51.472656 75.304688 51.535156 "/>
  </g>
</svg>