<?xml version="1.0" standalone="no"?>
<!DOCTYPE svg PUBLIC "-//W3C//DTD SVG 20010904//EN"
 "http://www.w3.org/TR/2001/REC-SVG-20010904/DTD/svg10.dtd">
<svg version="1.0" xmlns="http://www.w3.org/2000/svg"
 width="212.000000pt" height="212.000000pt" viewBox="0 0 212.000000 212.000000"
 preserveAspectRatio="xMidYMid meet">
<metadata>
Created by potrace 1.11, written by Peter Selinger 2001-2013
</metadata>
<g transform="translate(0.000000,212.000000) scale(0.100000,-0.100000)"
fill="#000000" stroke="none">
<path d="M955 2099 c-426 -37 -794 -354 -906 -782 -30 -115 -37 -321 -15 -440
76 -404 367 -718 765 -825 85 -23 115 -26 261 -26 147 0 176 3 265 27 315 84
581 319 702 617 56 139 67 203 67 390 0 150 -3 187 -22 256 -57 209 -153 369
-311 515 -215 200 -499 294 -806 268z m350 -119 c168 -46 302 -125 430 -254
233 -233 328 -584 245 -901 -48 -185 -175 -382 -324 -501 -478 -382 -1178
-227 -1447 321 -62 126 -89 231 -96 370 -13 269 83 521 272 711 129 130 268
212 431 253 117 30 118 30 269 26 105 -2 160 -8 220 -25z"/>
<path d="M939 1623 c-113 -70 -136 -80 -259 -113 l-135 -35 2 -45 3 -45 -75
-44 c-41 -25 -75 -48 -75 -51 0 -6 263 -130 267 -126 1 1 -13 61 -32 134 -23
93 -30 135 -22 137 59 21 773 192 778 187 4 -4 30 -104 59 -222 29 -118 55
-217 56 -219 5 -5 243 102 244 109 0 3 -58 40 -128 82 l-128 77 -28 116 c-17
69 -34 119 -42 122 -8 3 -63 -7 -124 -22 l-109 -27 -54 31 c-30 17 -59 31 -64
31 -5 0 -65 -35 -134 -77z"/>
<path d="M995 1485 c-85 -33 -144 -119 -145 -213 -1 -192 212 -295 365 -177
39 29 47 65 16 65 -11 0 -23 -5 -26 -10 -4 -6 -25 -20 -47 -31 -55 -28 -140
-23 -186 10 -77 54 -94 172 -37 246 53 70 151 93 230 55 48 -23 70 -58 80
-121 5 -36 3 -49 -10 -63 -15 -15 -20 -15 -39 -3 -12 8 -22 27 -24 43 -10 123
-13 134 -34 134 -11 0 -22 -8 -25 -18 -3 -14 -12 -17 -44 -14 -34 4 -44 -1
-74 -31 -32 -32 -35 -40 -35 -91 0 -50 4 -60 33 -91 43 -46 94 -51 143 -12 19
15 42 22 72 22 36 1 49 6 69 30 23 26 25 35 19 87 -13 125 -79 191 -195 195
-41 2 -81 -3 -106 -12z m107 -162 c20 -18 25 -82 8 -114 -15 -27 -64 -25 -84
3 -22 31 -20 84 4 108 24 24 47 25 72 3z"/>
<path d="M370 925 c0 -252 2 -305 13 -298 62 37 517 357 513 360 -6 6 -514
243 -521 243 -3 0 -5 -137 -5 -305z"/>
<path d="M1498 1107 c-142 -66 -257 -122 -255 -123 40 -33 527 -360 531 -356
3 3 6 140 6 304 0 232 -3 298 -12 297 -7 -1 -129 -55 -270 -122z"/>
<path d="M745 805 c-164 -113 -301 -207 -303 -210 -3 -3 282 -5 633 -5 l638 0
-304 210 c-232 160 -311 209 -335 210 -24 0 -96 -44 -329 -205z"/>
</g>
</svg>
