<?xml version="1.0" encoding="UTF-8" standalone="yes"?>
<svg xmlns="http://www.w3.org/2000/svg" width="200" height="200" viewBox="0 0 150 150" version="1.1"><style>.s0{ stroke:none;fill:rgb(13.72549%,12.156863%,12.54902%);}</style><path d="M74.5 38.1C74.5 58.2 58.2 74.5 38.1 74.5 18 74.5 1.7 58.2 1.7 38.1 1.7 18 18 1.7 38.1 1.7 58.2 1.7 74.5 18 74.5 38.1ZM74.5 38.1" transform="matrix(1.973684,0,0,1.973684,0,0)" style="fill:none;stroke-width:3.5;stroke:rgb(13.72549%,12.156863%,12.54902%)"/><path d="M25.2 62.6C25.2 62.6 25.2 62.6 25.2 62.6L25.2 104.5C25.2 105.4 25.5 106.3 25.9 107L64.1 80.7 25.2 62.6M47.3 68.3L42.4 48.6 99.1 34.5 107.2 67.3 125.3 58.9C124.9 58.5 106.5 47.3 106.5 47.3L102.6 31.5C102.3 30.4 101.2 29.7 100.1 30L84.5 33.9 78.2 30C76.3 28.7 74.5 29.9 74.5 29.9L56.6 40.8 39.4 45.1C38.3 45.4 37.6 46.5 37.9 47.6L38.9 51.6C38.9 51.6 27.4 58.5 27 58.9L47.3 68.3M127.1 62.6L88.1 80.7 126.3 107C126.8 106.3 127.1 105.4 127.1 104.5L127.1 62.6C127.1 62.6 127.1 62.6 127.1 62.6M76.2 79.2C75.4 79.2 74.6 79.1 73.8 79L29.7 109.4C29.8 109.4 122.4 109.4 122.6 109.4L78.5 79C77.7 79.1 77 79.2 76.2 79.2M79.4 57.9L79.9 62.5C79.3 64.6 77.8 66.1 76 66.2 73.7 66.3 71.6 63.9 71.4 61 71.3 58 73.1 55.5 75.5 55.3 75.5 55.3 75.6 55.3 75.7 55.3 77.1 55.3 78.5 56.3 79.4 57.9ZM75.3 51.5C70.8 51.8 67.4 56.1 67.6 61.2 67.9 66.1 71.5 70 75.8 70 76 70 76.1 70 76.2 70 78.9 69.9 81.4 68.2 82.7 65.6 83.8 66.2 85 66.6 86.3 66.6 86.5 66.6 86.7 66.6 86.9 66.6 90.4 66.3 92.8 63.2 92.4 59.5 92.4 58.9 92.3 57.5 92.3 57.3 91.9 52.5 89.8 48.7 86.5 46.3 82.8 43.6 77.6 42.9 72.4 44.2 72.4 44.2 72.4 44.2 72.3 44.2 72.3 44.2 72.3 44.2 72.3 44.2 68 45.3 64.4 47.9 62.2 51.7 59.9 55.5 59.2 59.9 60.3 64.1 62 70.8 67.5 75.5 74 76.4 74.7 76.5 75.5 76.6 76.2 76.6 76.9 76.6 77.6 76.6 78.3 76.5 78.9 76.4 79.6 76.3 80.2 76.1 83.5 75.3 86.4 73.5 88.6 70.9 89.3 70.1 89.2 68.9 88.4 68.3 87.7 67.6 86.4 67.6 85.8 68.4 84.1 70.4 81.8 71.8 79.3 72.4 78.3 72.7 77.2 72.8 76.2 72.8 70.6 72.8 65.4 68.9 64 63.2 63.2 59.9 63.7 56.6 65.4 53.7 67.1 50.8 69.9 48.7 73.2 47.9 73.2 47.9 73.2 47.9 73.3 47.9 73.3 47.9 73.3 47.9 73.3 47.9 77.5 46.8 81.5 47.4 84.3 49.4 86.7 51.1 88.2 53.9 88.5 57.6 88.5 58 88.6 59.3 88.6 59.7 88.6 59.7 88.6 59.8 88.6 59.8 88.8 61.1 88.3 62.6 86.5 62.8 85 62.9 83.6 61.8 83.5 60.3L82.6 50.9C82.5 49.9 81.6 49.1 80.6 49.2 79.5 49.3 78.7 50.2 78.8 51.3L78.9 52.3C77.8 51.8 76.6 51.5 75.3 51.5" class="s0"/></svg>