<?xml version="1.0" standalone="no"?>
<!DOCTYPE svg PUBLIC "-//W3C//DTD SVG 20010904//EN"
 "http://www.w3.org/TR/2001/REC-SVG-20010904/DTD/svg10.dtd">
<svg version="1.0" xmlns="http://www.w3.org/2000/svg"
 width="212.000000pt" height="212.000000pt" viewBox="0 0 212.000000 212.000000"
 preserveAspectRatio="xMidYMid meet">
<metadata>
Created by potrace 1.11, written by Peter Selinger 2001-2013
</metadata>
<g transform="translate(0.000000,212.000000) scale(0.100000,-0.100000)"
fill="#000000" stroke="none">
<path d="M905 2093 c-132 -18 -313 -91 -436 -173 -81 -55 -213 -187 -267 -267
-136 -202 -189 -390 -179 -640 6 -162 27 -253 91 -389 178 -377 534 -604 946
-604 577 0 1040 463 1040 1040 0 506 -353 930 -853 1025 -73 14 -266 18 -342
8z m390 -112 c107 -28 268 -108 357 -180 158 -125 274 -306 329 -511 33 -122
33 -338 0 -460 -45 -167 -133 -323 -251 -440 -336 -337 -869 -372 -1247 -83
-233 178 -373 458 -373 748 0 119 14 199 54 318 109 320 386 558 724 622 106
20 301 13 407 -14z"/>
<path d="M975 1724 c-214 -23 -400 -44 -412 -46 -20 -3 -3 -33 167 -290 132
-200 195 -288 207 -288 39 1 265 28 270 33 2 3 -14 38 -37 77 -29 49 -39 75
-32 82 6 6 127 23 269 39 142 16 261 30 264 32 4 1 -53 93 -125 204 -114 175
-134 202 -156 201 -14 0 -200 -20 -415 -44z"/>
<path d="M486 1603 c-37 -125 -166 -605 -166 -619 0 -17 379 -598 386 -592 1
2 24 77 49 168 26 91 49 166 50 168 2 2 81 12 176 22 95 11 175 23 179 27 9
10 82 275 77 279 -2 2 -81 -5 -175 -14 -156 -17 -173 -17 -186 -3 -7 9 -96
142 -196 296 -101 154 -184 281 -186 283 -1 2 -5 -5 -8 -15z"/>
<path d="M1442 1265 c-106 -12 -195 -24 -198 -27 -2 -3 14 -38 37 -77 l42 -73
-48 -176 c-26 -97 -52 -184 -56 -193 -7 -13 -45 -20 -184 -34 l-175 -18 -19
-66 c-52 -177 -71 -245 -67 -248 3 -3 848 97 853 101 1 0 44 158 96 349 l94
348 -44 70 -45 69 -46 -1 c-26 -1 -134 -11 -240 -24z"/>
</g>
</svg>
