<?xml version="1.0" encoding="UTF-8" standalone="yes"?>
<svg xmlns="http://www.w3.org/2000/svg" xmlns:xlink="http://www.w3.org/1999/xlink" width="197.33333333333331px" height="197.33333333333331px" viewBox="0 0 148 148" version="1.1">
  <g id="surface1">
    <path style=" stroke:none;fill-rule:nonzero;fill:rgb(0%,0%,0%);fill-opacity:1;" d="M 62.898438 0.394531 C 53.496094 1.675781 40.605469 6.875 31.847656 12.714844 C 26.078125 16.628906 16.675781 26.027344 12.832031 31.726562 C 3.144531 46.109375 -0.628906 59.496094 0.0859375 77.296875 C 0.511719 88.828125 2.007812 95.308594 6.566406 104.992188 C 19.242188 131.835938 44.59375 148 73.933594 148 C 115.027344 148 148 115.03125 148 73.949219 C 148 37.917969 122.859375 7.730469 87.253906 0.964844 C 82.054688 -0.03125 68.308594 -0.316406 62.898438 0.394531 Z M 90.671875 8.371094 C 98.292969 10.363281 109.757812 16.058594 116.09375 21.1875 C 127.347656 30.085938 135.609375 42.976562 139.523438 57.570312 C 141.875 66.257812 141.875 81.636719 139.523438 90.324219 C 136.320312 102.214844 130.054688 113.324219 121.648438 121.65625 C 97.722656 145.648438 59.761719 148.140625 32.84375 127.566406 C 16.25 114.890625 6.28125 94.953125 6.28125 74.304688 C 6.28125 65.832031 7.277344 60.136719 10.125 51.660156 C 17.886719 28.875 37.613281 11.929688 61.6875 7.375 C 69.234375 5.949219 83.121094 6.449219 90.671875 8.371094 Z M 90.671875 8.371094 "/>
    <path style=" stroke:none;fill-rule:nonzero;fill:rgb(0%,0%,0%);fill-opacity:1;" d="M 67.882812 26.667969 C 52.640625 28.308594 39.394531 29.800781 38.539062 29.945312 C 37.117188 30.160156 38.328125 32.292969 50.433594 50.59375 C 59.835938 64.835938 64.320312 71.101562 65.175781 71.101562 C 67.953125 71.027344 84.046875 69.105469 84.402344 68.75 C 84.546875 68.535156 83.40625 66.046875 81.769531 63.269531 C 79.703125 59.777344 78.992188 57.929688 79.488281 57.429688 C 79.917969 57.003906 88.535156 55.792969 98.648438 54.652344 C 108.761719 53.511719 117.234375 52.515625 117.449219 52.375 C 117.734375 52.304688 113.671875 45.753906 108.546875 37.847656 C 100.425781 25.386719 99.003906 23.464844 97.4375 23.535156 C 96.441406 23.535156 83.191406 24.960938 67.882812 26.667969 Z M 67.882812 26.667969 "/>
    <path style=" stroke:none;fill-rule:nonzero;fill:rgb(0%,0%,0%);fill-opacity:1;" d="M 33.058594 35.285156 C 30.421875 44.1875 21.234375 78.363281 21.234375 79.359375 C 21.234375 80.570312 48.226562 121.941406 48.726562 121.511719 C 48.796875 121.371094 50.433594 116.03125 52.214844 109.550781 C 54.066406 103.070312 55.703125 97.730469 55.773438 97.589844 C 55.917969 97.445312 61.542969 96.734375 68.308594 96.023438 C 75.074219 95.238281 80.773438 94.382812 81.058594 94.097656 C 81.699219 93.386719 86.898438 74.519531 86.539062 74.234375 C 86.398438 74.089844 80.773438 74.589844 74.078125 75.230469 C 62.96875 76.441406 61.757812 76.441406 60.832031 75.445312 C 60.332031 74.804688 53.996094 65.332031 46.875 54.367188 C 39.679688 43.402344 33.769531 34.359375 33.625 34.21875 C 33.554688 34.074219 33.269531 34.574219 33.058594 35.285156 Z M 33.058594 35.285156 "/>
    <path style=" stroke:none;fill-rule:nonzero;fill:rgb(0%,0%,0%);fill-opacity:1;" d="M 101.140625 59.351562 C 93.589844 60.207031 87.253906 61.0625 87.039062 61.273438 C 86.898438 61.488281 88.035156 63.980469 89.675781 66.757812 L 92.664062 71.953125 L 89.246094 84.488281 C 87.394531 91.394531 85.542969 97.589844 85.257812 98.230469 C 84.761719 99.15625 82.054688 99.652344 72.15625 100.648438 L 59.691406 101.929688 L 58.339844 106.632812 C 54.636719 119.234375 53.28125 124.074219 53.566406 124.289062 C 53.78125 124.503906 113.957031 117.382812 114.316406 117.097656 C 114.386719 117.097656 117.449219 105.847656 121.152344 92.246094 L 127.847656 67.46875 L 124.710938 62.484375 L 121.507812 57.570312 L 118.230469 57.644531 C 116.378906 57.714844 108.6875 58.425781 101.140625 59.351562 Z M 101.140625 59.351562 "/>
  </g>
</svg>