<?xml version="1.0" encoding="UTF-8" standalone="yes"?>
<svg xmlns="http://www.w3.org/2000/svg" width="197.3" height="197.3" viewBox="0 0 148 148" version="1.1"><style>.s0{ stroke:none;fill:rgb(0%,0%,0%);}</style><path d="M62.9 0.4C53.5 1.7 40.6 6.9 31.8 12.7 26.1 16.6 16.7 26 12.8 31.7 3.1 46.1-0.6 59.5 0.1 77.3 0.5 88.8 2 95.3 6.6 105 19.2 131.8 44.6 148 73.9 148 115 148 148 115 148 73.9 148 37.9 122.9 7.7 87.3 1 82.1 0 68.3-0.3 62.9 0.4ZM90.7 8.4C98.3 10.4 109.8 16.1 116.1 21.2 127.3 30.1 135.6 43 139.5 57.6 141.9 66.3 141.9 81.6 139.5 90.3 136.3 102.2 130.1 113.3 121.6 121.7 97.7 145.6 59.8 148.1 32.8 127.6 16.3 114.9 6.3 95 6.3 74.3 6.3 65.8 7.3 60.1 10.1 51.7 17.9 28.9 37.6 11.9 61.7 7.4 69.2 5.9 83.1 6.4 90.7 8.4ZM90.7 8.4 67.9 26.7C52.6 28.3 39.4 29.8 38.5 29.9 37.1 30.2 38.3 32.3 50.4 50.6 59.8 64.8 64.3 71.1 65.2 71.1 68 71 84 69.1 84.4 68.8 84.5 68.5 83.4 66 81.8 63.3 79.7 59.8 79 57.9 79.5 57.4 79.9 57 88.5 55.8 98.6 54.7 108.8 53.5 117.2 52.5 117.4 52.4 117.7 52.3 113.7 45.8 108.5 37.8 100.4 25.4 99 23.5 97.4 23.5 96.4 23.5 83.2 25 67.9 26.7ZM67.9 26.7 33.1 35.3C30.4 44.2 21.2 78.4 21.2 79.4 21.2 80.6 48.2 121.9 48.7 121.5 48.8 121.4 50.4 116 52.2 109.6 54.1 103.1 55.7 97.7 55.8 97.6 55.9 97.4 61.5 96.7 68.3 96 75.1 95.2 80.8 94.4 81.1 94.1 81.7 93.4 86.9 74.5 86.5 74.2 86.4 74.1 80.8 74.6 74.1 75.2 63 76.4 61.8 76.4 60.8 75.4 60.3 74.8 54 65.3 46.9 54.4 39.7 43.4 33.8 34.4 33.6 34.2 33.6 34.1 33.3 34.6 33.1 35.3ZM33.1 35.3 101.1 59.4C93.6 60.2 87.3 61.1 87 61.3 86.9 61.5 88 64 89.7 66.8L92.7 72 89.2 84.5C87.4 91.4 85.5 97.6 85.3 98.2 84.8 99.2 82.1 99.7 72.2 100.6L59.7 101.9 58.3 106.6C54.6 119.2 53.3 124.1 53.6 124.3 53.8 124.5 114 117.4 114.3 117.1 114.4 117.1 117.4 105.8 121.2 92.2L127.8 67.5 124.7 62.5 121.5 57.6 118.2 57.6C116.4 57.7 108.7 58.4 101.1 59.4ZM101.1 59.4" class="s0"/></svg>