<?xml version="1.0" encoding="UTF-8" standalone="yes"?>
<svg xmlns="http://www.w3.org/2000/svg" xmlns:xlink="http://www.w3.org/1999/xlink" width="200" height="200" viewBox="0 0 150 150" version="1.1">
  <style>
.s0{
         stroke:none;
        fill-rule:nonzero;
        fill:rgb(100%,100%,100%);
}
.s1{
         stroke:none;
        fill-rule:evenodd;
        fill:rgb(13.72549%,12.156863%,12.54902%);
}

</style>
  <path
     d="m 144.16846,74.800787 c 0,37.102003 -31.66417,67.177863 -70.743835,67.177863 -39.06483,0 -70.7438296,-30.07586 -70.7438296,-67.177863 0,-37.08792 31.6789996,-67.16378 70.7438296,-67.16378 39.079665,0 70.743835,30.07586 70.743835,67.16378 z m 0,0"
     style="fill:none;stroke:#211e1e;stroke-width:6.63294125;stroke-miterlimit:10"
     id="path4"
     />
  <path
     d="m 44.087134,71.137214 -0.81476,19.473 c -0.11639,2.839821 1.11103,5.462285 3.692864,7.881915 2.58184,2.419641 6.105399,4.346661 10.581277,5.766571 4.47588,1.41991 9.311523,2.12989 14.538672,2.12989 5.22715,0 10.062792,-0.70998 14.53867,-2.12989 4.475879,-1.41991 7.999444,-3.33244 10.581274,-5.766571 2.581828,-2.43412 3.809259,-5.056581 3.692859,-7.881915 l -0.81475,-19.473 -25.828891,11.156411 c -0.65604,0.289745 -1.375567,0.434671 -2.15858,0.434671 -0.783014,0 -1.502541,-0.144926 -2.15858,-0.434671 z M 20.236944,51.171536 c 0,0.94178 0.32802,1.57927 0.99465,1.91254 l 50.409179,21.689812 c 0.116395,0.04324 0.275113,0.05795 0.454996,0.05795 0.179882,0 0.32802,-0.0146 0.454994,-0.05795 L 101.88205,62.081666 c 1.29092,1.390937 2.35963,3.680138 3.19555,6.867706 0.83592,3.187569 1.3544,6.853217 1.53428,10.997052 -1.89404,1.477859 -2.83578,3.72365 -2.83578,6.722831 0,2.839821 0.86767,5.027609 2.61358,6.592447 l -2.61358,26.688448 c -0.0635,0.57955 0.0635,1.08665 0.35977,1.53581 0.27511,0.44916 0.63487,0.68101 1.07929,0.68101 h 8.6449 c 0.45499,0 0.81475,-0.23185 1.07929,-0.68101 0.29627,-0.44916 0.42325,-0.97075 0.35976,-1.53581 l -2.61358,-26.688448 c 1.73533,-1.564838 2.61358,-3.752626 2.61358,-6.592447 0,-2.999181 -0.97348,-5.273946 -2.92043,-6.838729 -0.32802,-8.504978 -1.79882,-15.28576 -4.41239,-20.342398 l 14.98308,-6.404052 c 0.65604,-0.33327 0.99464,-0.97076 0.99464,-1.91254 0,-0.94178 -0.32802,-1.57926 -0.99464,-1.91253 L 72.540182,27.569196 c -0.116393,-0.0433 -0.275113,-0.058 -0.454995,-0.058 -0.179882,0 -0.328019,0.0147 -0.454995,0.058 l -50.409188,21.68981 c -0.65604,0.31877 -0.98406,0.95627 -0.98406,1.91253 z"
     class="s1"
     id="path6"
     style="fill:#211e1e;fill-rule:evenodd;stroke:none;stroke-width:0.12381864" />
</svg>
