<?xml version="1.0" encoding="utf-8"?>
<svg viewBox="0 0 150 150" y="0" x="0" xmlns="http://www.w3.org/2000/svg" width="200" height="200" xmlns:xlink="http://www.w3.org/1999/xlink"  version="1.1">
  <style>
.s0{
         stroke:none;
        fill-rule:nonzero;
        fill:rgb(100%,100%,100%);
}
.s1{
         stroke:none;
        fill-rule:evenodd;
        fill:rgb(13.72549%,12.156863%,12.54902%);
}

</style>
  <g transform="scale(1.8,1.8) translate(-10, -10)">
    <path fill="#000" d="M70.5 63.7H45c-1.3 0-2.4 1.1-2.4 2.4 0 1.3 1.1 2.4 2.4 2.4h25.6c1.3 0 2.4-1.1 2.4-2.4-.1-1.3-1.1-2.4-2.5-2.4z">
    </path>
    <path fill="#000" d="M43.3 48l-12-15.6c-.8-1-2.3-1.2-3.3-.4-1 .8-1.2 2.3-.4 3.3l10.8 14.1-10.8 13.8c-.8 1-.6 2.5.4 3.3.4.3.9.5 1.5.5.7 0 1.4-.3 1.9-.9l12-15.2c.5-.8.5-2-.1-2.9z">
    </path>
  </g>
    <path
     d="m 144.16846,74.800787 c 0,37.102003 -31.66417,67.177863 -70.743835,67.177863 -39.06483,0 -70.7438296,-30.07586 -70.7438296,-67.177863 0,-37.08792 31.6789996,-67.16378 70.7438296,-67.16378 39.079665,0 70.743835,30.07586 70.743835,67.16378 z m 0,0"
     style="fill:none;stroke:#211e1e;stroke-width:6.63294125;stroke-miterlimit:10"
     id="path4"
     />

</svg>
