<?xml version="1.0" encoding="UTF-8" standalone="yes"?>
<svg xmlns="http://www.w3.org/2000/svg" xmlns:xlink="http://www.w3.org/1999/xlink" width="200px" height="200px" viewBox="0 0 150 150" version="1.1">
  <g id="surface1">
    <path style="fill:none;stroke-width:3.5;stroke-linecap:butt;stroke-linejoin:miter;stroke:rgb(13.72549%,12.156863%,12.54902%);stroke-opacity:1;stroke-miterlimit:10;" d="M 74.476042 38.112813 C 74.476042 58.195417 58.195417 74.478021 38.110833 74.478021 C 18.028229 74.478021 1.749583 58.195417 1.749583 38.112813 C 1.749583 18.028229 18.028229 1.749583 38.110833 1.749583 C 58.195417 1.749583 74.476042 18.028229 74.476042 38.112813 Z M 74.476042 38.112813 " transform="matrix(1.973684,0,0,1.973684,0,0)"/>
    <path style=" stroke:none;fill-rule:nonzero;fill:rgb(13.72549%,12.156863%,12.54902%);fill-opacity:1;" d="M 114.640625 44.882812 C 114.640625 54.511719 106.835938 62.3125 97.210938 62.3125 C 87.585938 62.3125 79.785156 54.511719 79.785156 44.882812 C 79.785156 35.261719 87.585938 27.453125 97.210938 27.453125 C 106.835938 27.453125 114.640625 35.261719 114.640625 44.882812 "/>
    <path style=" stroke:none;fill-rule:nonzero;fill:rgb(13.72549%,12.156863%,12.54902%);fill-opacity:1;" d="M 114.570312 106.097656 C 114.570312 115.722656 106.765625 123.53125 97.140625 123.53125 C 87.519531 123.53125 79.710938 115.722656 79.710938 106.097656 C 79.710938 96.472656 87.519531 88.671875 97.140625 88.671875 C 106.765625 88.671875 114.570312 96.472656 114.570312 106.097656 "/>
    <path style=" stroke:none;fill-rule:nonzero;fill:rgb(13.72549%,12.156863%,12.54902%);fill-opacity:1;" d="M 54.167969 75.253906 C 54.167969 84.882812 46.363281 92.683594 36.738281 92.683594 C 27.109375 92.683594 19.308594 84.882812 19.308594 75.253906 C 19.308594 65.628906 27.109375 57.824219 36.738281 57.824219 C 46.363281 57.824219 54.167969 65.628906 54.167969 75.253906 "/>
    <path style="fill:none;stroke-width:4.512475;stroke-linecap:butt;stroke-linejoin:miter;stroke:rgb(13.72549%,12.156863%,12.54902%);stroke-opacity:1;stroke-miterlimit:10;" d="M 48.157083 23.187917 L 17.877813 39.547708 " transform="matrix(1.973684,0,0,1.973684,0,0)"/>
    <path style="fill:none;stroke-width:4.512475;stroke-linecap:butt;stroke-linejoin:miter;stroke:rgb(13.72549%,12.156863%,12.54902%);stroke-opacity:1;stroke-miterlimit:10;" d="M 18.285521 37.675417 L 48.641979 53.710625 " transform="matrix(1.973684,0,0,1.973684,0,0)"/>
  </g>
</svg>