<?xml version="1.0" encoding="UTF-8" standalone="yes"?>
<svg xmlns="http://www.w3.org/2000/svg" width="200" height="200" viewBox="0 0 150 150" version="1.1"><style>.s0{ stroke:none;fill:rgb(13.72549%,12.156863%,12.54902%);}.s1{fill:none;stroke-width:4.5;stroke:rgb(13.72549%,12.156863%,12.54902%);}</style><path d="M74.5 38.1C74.5 58.2 58.2 74.5 38.1 74.5 18 74.5 1.7 58.2 1.7 38.1 1.7 18 18 1.7 38.1 1.7 58.2 1.7 74.5 18 74.5 38.1ZM74.5 38.1" transform="matrix(1.973684,0,0,1.973684,0,0)" style="fill:none;stroke-width:3.5;stroke:rgb(13.72549%,12.156863%,12.54902%)"/><path d="M114.6 44.9C114.6 54.5 106.8 62.3 97.2 62.3 87.6 62.3 79.8 54.5 79.8 44.9 79.8 35.3 87.6 27.5 97.2 27.5 106.8 27.5 114.6 35.3 114.6 44.9M114.6 106.1C114.6 115.7 106.8 123.5 97.1 123.5 87.5 123.5 79.7 115.7 79.7 106.1 79.7 96.5 87.5 88.7 97.1 88.7 106.8 88.7 114.6 96.5 114.6 106.1M54.2 75.3C54.2 84.9 46.4 92.7 36.7 92.7 27.1 92.7 19.3 84.9 19.3 75.3 19.3 65.6 27.1 57.8 36.7 57.8 46.4 57.8 54.2 65.6 54.2 75.3" class="s0"/><path d="M48.2 23.2L17.9 39.5M18.3 37.7L48.6 53.7" transform="matrix(1.973684,0,0,1.973684,0,0)" class="s1"/></svg>