<?xml version="1.0" standalone="no"?>
<!DOCTYPE svg PUBLIC "-//W3C//DTD SVG 20010904//EN"
 "http://www.w3.org/TR/2001/REC-SVG-20010904/DTD/svg10.dtd">
<svg version="1.0" xmlns="http://www.w3.org/2000/svg"
 width="212.000000pt" height="212.000000pt" viewBox="0 0 212.000000 212.000000"
 preserveAspectRatio="xMidYMid meet">
<metadata>
Created by potrace 1.11, written by Peter Selinger 2001-2013
</metadata>
<g transform="translate(0.000000,212.000000) scale(0.100000,-0.100000)"
fill="#000000" stroke="none">
<path d="M935 2103 c-210 -26 -430 -128 -588 -272 -129 -119 -250 -321 -299
-501 -20 -75 -23 -107 -22 -270 0 -173 2 -191 27 -274 56 -182 140 -325 264
-450 311 -314 776 -399 1179 -216 203 92 390 274 494 480 258 512 47 1144
-466 1399 -180 89 -399 128 -589 104z m358 -117 c175 -45 322 -131 448 -263
89 -93 142 -172 186 -274 233 -537 -54 -1136 -623 -1301 -69 -20 -100 -23
-249 -22 -155 0 -178 3 -258 27 -175 54 -306 135 -431 268 -180 191 -265 421
-253 689 17 409 285 750 682 869 153 46 335 48 498 7z"/>
<path d="M1270 1710 c-94 -44 -143 -117 -144 -216 l-1 -61 -199 -108 c-135
-73 -204 -105 -212 -99 -7 5 -30 21 -52 37 -94 67 -224 56 -307 -28 -115 -114
-88 -298 54 -378 86 -49 204 -36 271 28 l25 24 205 -109 205 -108 7 -59 c3
-32 11 -71 17 -86 34 -87 124 -147 223 -147 142 0 237 97 238 240 0 54 -5 74
-30 117 -76 132 -256 162 -367 60 l-23 -20 -97 51 c-54 28 -147 77 -208 110
l-110 58 -1 41 -1 42 201 108 c110 59 206 110 214 111 8 2 24 -5 36 -17 34
-32 90 -51 151 -51 244 0 331 322 120 446 -64 37 -153 43 -215 14z"/>
</g>
</svg>
